<svg width="84" height="16" viewBox="0 0 84 16" fill="none" xmlns="http://www.w3.org/2000/svg">
<path d="M0 0V15.3345H1.98886V8.31154H9.86057V15.3345H11.8494V0H9.86057V6.59339H1.98886V0H0ZM15.1087 0V15.3345H25.4926V13.6163H17.0975V8.31154H24.8646V6.59339H17.0975V1.71815H25.4298V0H15.1087ZM27.9071 0V15.3345H37.8095V13.6163H29.8959V0H27.9071ZM43.3853 9.06323L49.1007 0H46.8397L42.4642 7.30213L37.984 0H35.6183L41.3965 9.06323V15.3345H43.3853V9.06323ZM50.7847 0V15.3345H52.7735V8.31154H59.6404V6.59339H52.7735V1.71815H60.6034V0H50.7847ZM62.8062 0V15.3345H72.7086V13.6163H64.795V0H62.8062ZM78.2846 9.06323L84 0H81.739L77.3635 7.30213L72.8833 0H70.5176L76.2958 9.06323V15.3345H78.2846V9.06323Z" fill="black"/>
</svg>
