<svg width="137" height="26" viewBox="0 0 137 26" fill="none" xmlns="http://www.w3.org/2000/svg">
<path fill-rule="evenodd" clip-rule="evenodd" d="M25.0593 6.34867C25.1479 6.37635 25.229 6.42341 25.2971 6.48645C25.3652 6.54949 25.4189 6.62691 25.4534 6.71309C25.4878 6.79928 25.5027 6.89206 25.4968 6.9847C25.4909 7.07734 25.4642 7.16751 25.4192 7.24866C25.2992 7.48166 25.1691 7.70866 25.0491 7.93566C25.0476 8.01518 25.0268 8.09315 24.9885 8.16284C24.9502 8.23253 24.8957 8.29185 24.8293 8.33567C23.725 10.3428 22.4432 12.2471 20.9992 14.0257C20.9944 14.0272 20.9901 14.0299 20.9866 14.0336C20.9831 14.0373 20.9805 14.0418 20.9792 14.0467C22.6492 15.2297 26.6392 18.2467 24.6892 19.9467C23.6692 20.8397 20.7091 20.6897 19.5691 20.1837C18.9084 19.8445 18.2934 19.4227 17.739 18.9287C16.759 18.1387 16.4891 18.1847 15.6091 19.0287C14.4791 20.1137 13.8494 20.8007 12.1794 20.6037C10.1849 20.2559 8.32981 19.3499 6.82933 17.9907C3.4438 15.0424 1.05985 11.1133 0.00901499 6.74866C-0.00445804 6.68078 -0.00269686 6.61079 0.0134095 6.54349C0.0295159 6.47619 0.0600229 6.41316 0.102765 6.35874C0.145507 6.30431 0.199402 6.25978 0.260968 6.22818C0.322534 6.19658 0.390073 6.17866 0.45921 6.17566C0.47921 6.17566 0.479249 6.16566 0.499249 6.16066C2.07974 5.87689 3.69259 5.8193 5.28929 5.98966C5.41579 6.00538 5.53429 6.05947 5.62913 6.14466C5.67589 6.16345 5.71727 6.19371 5.74925 6.23265C6.97925 7.71465 7.51905 9.67166 8.79905 11.1127C9.41905 11.8127 9.61942 11.6967 9.67943 10.7357C9.70775 10.3232 9.71086 9.90948 9.68919 9.49666C9.62919 8.41766 9.24909 7.47266 9.08909 6.42366C9.05895 6.28631 9.08441 6.14261 9.15941 6.02365C9.17637 5.90502 9.23091 5.79509 9.31566 5.71035C9.4004 5.6256 9.5105 5.57062 9.62913 5.55365C11.1537 5.45488 12.6825 5.43419 14.2092 5.49166C14.3038 5.46242 14.4052 5.4641 14.4988 5.49648C14.5923 5.52885 14.673 5.59023 14.7292 5.67166C14.7864 5.68831 14.8381 5.72017 14.8786 5.76384C14.9192 5.80752 14.9469 5.86138 14.9592 5.91967C15.1391 6.86199 15.1998 7.82322 15.1394 8.78066C15.1294 9.24066 15.1191 9.70466 15.1091 10.1647C15.0991 10.4277 15.0993 10.6917 15.0993 10.9547C14.9993 11.4407 15.1894 11.6257 15.6594 11.5127C16.4494 11.5997 16.6591 10.9287 17.0491 10.3127C17.2791 9.94666 17.4992 9.56966 17.7092 9.18766C18.2092 8.28766 18.569 7.34466 19.029 6.42966C19.0619 6.35651 19.1135 6.29326 19.1784 6.24623C19.2434 6.1992 19.3194 6.17003 19.3992 6.16165C19.4453 6.13562 19.4963 6.11961 19.5491 6.11466C21.3886 5.97743 23.2381 6.05597 25.0593 6.34867Z" fill="#5476A4"/>
<path fill-rule="evenodd" clip-rule="evenodd" d="M134.379 0H113.989C113.313 0.00237184 112.666 0.271792 112.188 0.749496C111.711 1.2272 111.441 1.87442 111.439 2.54999V22.947C111.441 23.6226 111.711 24.2698 112.188 24.7475C112.666 25.2252 113.313 25.4946 113.989 25.497H134.379C135.055 25.4962 135.703 25.2273 136.181 24.7492C136.659 24.2712 136.928 23.623 136.929 22.947V2.547C136.928 1.87138 136.659 1.22385 136.181 0.746399C135.703 0.268944 135.055 0.000528187 134.379 0ZM124.189 7.64799C125.198 7.64799 126.184 7.9471 127.022 8.50749C127.861 9.06789 128.515 9.86441 128.901 10.7963C129.287 11.7282 129.388 12.7536 129.191 13.743C128.994 14.7323 128.509 15.641 127.795 16.3542C127.082 17.0675 126.173 17.5532 125.184 17.75C124.195 17.9468 123.169 17.8458 122.237 17.4598C121.305 17.0738 120.509 16.4201 119.949 15.5814C119.388 14.7427 119.089 13.7567 119.089 12.748C119.091 11.396 119.629 10.0999 120.585 9.14374C121.541 8.1876 122.837 7.64937 124.189 7.64699V7.64799ZM114.629 22.948C114.544 22.9539 114.458 22.9415 114.378 22.9116C114.298 22.8817 114.225 22.835 114.165 22.7747C114.104 22.7144 114.057 22.6418 114.026 22.5618C113.996 22.4818 113.983 22.3963 113.989 22.311V11.472H116.669C116.562 11.888 116.518 12.3179 116.539 12.747C116.539 14.7746 117.345 16.7191 118.778 18.1528C120.212 19.5865 122.157 20.392 124.184 20.392C126.212 20.392 128.156 19.5865 129.59 18.1528C131.024 16.7191 131.829 14.7746 131.829 12.747C131.849 12.3185 131.808 11.8893 131.709 11.472H134.379V22.307C134.384 22.3914 134.372 22.476 134.342 22.5553C134.313 22.6345 134.266 22.7066 134.207 22.7667C134.147 22.8269 134.076 22.8738 133.997 22.9043C133.918 22.9349 133.834 22.9484 133.749 22.944H114.629V22.948ZM134.379 5.73999C134.384 5.82443 134.372 5.90905 134.342 5.98828C134.313 6.06751 134.266 6.13957 134.207 6.19972C134.147 6.25988 134.076 6.30677 133.997 6.33733C133.918 6.36788 133.834 6.3814 133.749 6.377H131.199C131.114 6.38287 131.028 6.37044 130.948 6.34055C130.868 6.31065 130.795 6.26399 130.734 6.20367C130.674 6.14335 130.627 6.07078 130.597 5.99081C130.566 5.91085 130.554 5.82532 130.559 5.73999V3.18999C130.554 3.10474 130.567 3.01935 130.597 2.9395C130.628 2.85965 130.674 2.7872 130.735 2.72699C130.795 2.66678 130.868 2.6202 130.948 2.59036C131.028 2.56053 131.114 2.54814 131.199 2.554H133.749C133.833 2.54962 133.918 2.5631 133.997 2.5936C134.075 2.62409 134.147 2.6709 134.207 2.73094C134.266 2.79099 134.312 2.86292 134.342 2.94203C134.372 3.02114 134.384 3.10563 134.379 3.18999V5.73999Z" fill="#37373F"/>
<path fill-rule="evenodd" clip-rule="evenodd" d="M79.689 25.494H72.6489V16.703H77.0488V12.308H72.6489V9.67C72.6505 9.43719 72.744 9.21437 72.9087 9.04984C73.0734 8.8853 73.296 8.79231 73.5288 8.791H77.4888V4.39099H73.0889C71.7682 4.50233 70.5381 5.10693 69.6431 6.08443C68.748 7.06193 68.2536 8.34064 68.2588 9.666V12.304H64.7388V16.698H68.2588V25.49H57.709C57.2426 25.4892 56.7957 25.3037 56.4658 24.974C56.136 24.6443 55.9503 24.1974 55.9492 23.731V1.758C55.9505 1.29181 56.136 0.845116 56.4658 0.515656C56.7957 0.186195 57.2428 0.000791421 57.709 0H79.689C80.1536 0.00290161 80.5985 0.189296 80.9263 0.518585C81.2541 0.847875 81.4382 1.29337 81.439 1.758V23.735C81.4384 24.1998 81.2541 24.6455 80.9263 24.9751C80.5984 25.3046 80.1538 25.4911 79.689 25.494Z" fill="#4A68AD"/>
</svg>
