<svg width="40" height="19" viewBox="0 0 40 19" fill="none" xmlns="http://www.w3.org/2000/svg">
<path fill-rule="evenodd" clip-rule="evenodd" d="M33.9557 12.7841L29.2259 8.25809C29.1548 8.19266 29.098 8.11241 29.0591 8.02259C29.0202 7.93278 29 7.83546 29 7.73701C29 7.63857 29.0202 7.54124 29.0591 7.45143C29.098 7.36161 29.1548 7.28136 29.2259 7.21593C29.3765 7.07686 29.5714 7 29.7731 7C29.9749 7 30.1695 7.07686 30.3201 7.21593L34.5001 11.2209L38.6858 7.21593C38.8353 7.07691 39.0291 7.00002 39.23 7.00002C39.4309 7.00002 39.6247 7.07691 39.7741 7.21593C39.8452 7.28141 39.902 7.36172 39.9409 7.45158C39.9798 7.54144 40 7.63882 40 7.73731C40 7.8358 39.9798 7.93318 39.9409 8.02304C39.902 8.1129 39.8452 8.19321 39.7741 8.25869L35.05 12.7841C34.8984 12.9235 34.7028 13.0003 34.5001 13C34.299 13.0013 34.1045 12.9243 33.9557 12.7841Z" fill="#C7C7C7"/>
<path d="M8.88 15L6.48 11.625C6.21 11.655 5.93 11.67 5.64 11.67H2.82V15H1.71V4.5H5.64C6.98 4.5 8.03 4.82 8.79 5.46C9.55 6.1 9.93 6.98 9.93 8.1C9.93 8.92 9.72 9.615 9.3 10.185C8.89 10.745 8.3 11.15 7.53 11.4L10.095 15H8.88ZM5.61 10.725C6.65 10.725 7.445 10.495 7.995 10.035C8.545 9.575 8.82 8.93 8.82 8.1C8.82 7.25 8.545 6.6 7.995 6.15C7.445 5.69 6.65 5.46 5.61 5.46H2.82V10.725H5.61ZM16.7798 15.09C15.4198 15.09 14.3598 14.7 13.5998 13.92C12.8398 13.14 12.4598 12.005 12.4598 10.515V4.5H13.5698V10.47C13.5698 11.69 13.8448 12.6 14.3948 13.2C14.9448 13.8 15.7398 14.1 16.7798 14.1C17.8298 14.1 18.6298 13.8 19.1798 13.2C19.7298 12.6 20.0048 11.69 20.0048 10.47V4.5H21.0848V10.515C21.0848 12.005 20.7048 13.14 19.9448 13.92C19.1948 14.7 18.1398 15.09 16.7798 15.09Z" fill="#37373F"/>
</svg>
