<svg width="265" height="41" viewBox="0 0 265 41" fill="none" xmlns="http://www.w3.org/2000/svg">
<path d="M50.534 4.9H57.19V5.719H51.483V8.696H54.46C55.5347 8.696 56.3493 8.917 56.904 9.359C57.4673 9.801 57.749 10.4423 57.749 11.283C57.749 12.1583 57.4457 12.83 56.839 13.298C56.241 13.766 55.3787 14 54.252 14H50.534V4.9ZM54.239 13.233C55.0797 13.233 55.7123 13.0727 56.137 12.752C56.5703 12.4313 56.787 11.9547 56.787 11.322C56.787 10.698 56.5747 10.2343 56.15 9.931C55.734 9.619 55.097 9.463 54.239 9.463H51.483V13.233H54.239ZM62.5793 14.065C61.9206 14.065 61.327 13.9177 60.7983 13.623C60.2696 13.3197 59.8536 12.9037 59.5503 12.375C59.247 11.8463 59.0953 11.2483 59.0953 10.581C59.0953 9.91367 59.247 9.31567 59.5503 8.787C59.8536 8.25833 60.2696 7.84667 60.7983 7.552C61.327 7.25733 61.9206 7.11 62.5793 7.11C63.238 7.11 63.8316 7.25733 64.3603 7.552C64.889 7.84667 65.3006 8.25833 65.5953 8.787C65.8986 9.31567 66.0503 9.91367 66.0503 10.581C66.0503 11.2483 65.8986 11.8463 65.5953 12.375C65.3006 12.9037 64.889 13.3197 64.3603 13.623C63.8316 13.9177 63.238 14.065 62.5793 14.065ZM62.5793 13.246C63.0646 13.246 63.498 13.1377 63.8793 12.921C64.2693 12.6957 64.5726 12.3793 64.7893 11.972C65.006 11.5647 65.1143 11.101 65.1143 10.581C65.1143 10.061 65.006 9.59733 64.7893 9.19C64.5726 8.78267 64.2693 8.47067 63.8793 8.254C63.498 8.02867 63.0646 7.916 62.5793 7.916C62.094 7.916 61.6563 8.02867 61.2663 8.254C60.885 8.47067 60.5816 8.78267 60.3563 9.19C60.1396 9.59733 60.0313 10.061 60.0313 10.581C60.0313 11.101 60.1396 11.5647 60.3563 11.972C60.5816 12.3793 60.885 12.6957 61.2663 12.921C61.6563 13.1377 62.094 13.246 62.5793 13.246ZM73.5749 7.162V14H72.6519V7.981H69.3759L69.2849 9.671C69.2155 11.0923 69.0509 12.1843 68.7909 12.947C68.5309 13.7097 68.0672 14.091 67.3999 14.091C67.2179 14.091 66.9969 14.0563 66.7369 13.987L66.8019 13.194C66.9579 13.2287 67.0662 13.246 67.1269 13.246C67.4822 13.246 67.7509 13.0813 67.9329 12.752C68.1149 12.4227 68.2362 12.0153 68.2969 11.53C68.3575 11.0447 68.4095 10.4033 68.4529 9.606L68.5699 7.162H73.5749ZM82.1787 10.867H76.4587C76.5107 11.5777 76.7837 12.154 77.2777 12.596C77.7717 13.0293 78.3957 13.246 79.1497 13.246C79.5744 13.246 79.9644 13.1723 80.3197 13.025C80.6751 12.869 80.9827 12.6437 81.2427 12.349L81.7627 12.947C81.4594 13.311 81.0781 13.5883 80.6187 13.779C80.1681 13.9697 79.6697 14.065 79.1237 14.065C78.4217 14.065 77.7977 13.9177 77.2517 13.623C76.7144 13.3197 76.2941 12.9037 75.9907 12.375C75.6874 11.8463 75.5357 11.2483 75.5357 10.581C75.5357 9.91367 75.6787 9.31567 75.9647 8.787C76.2594 8.25833 76.6581 7.84667 77.1607 7.552C77.6721 7.25733 78.2441 7.11 78.8767 7.11C79.5094 7.11 80.0771 7.25733 80.5797 7.552C81.0824 7.84667 81.4767 8.25833 81.7627 8.787C82.0487 9.307 82.1917 9.905 82.1917 10.581L82.1787 10.867ZM78.8767 7.903C78.2181 7.903 77.6634 8.11533 77.2127 8.54C76.7707 8.956 76.5194 9.502 76.4587 10.178H81.3077C81.2471 9.502 80.9914 8.956 80.5407 8.54C80.0987 8.11533 79.5441 7.903 78.8767 7.903ZM90.2149 10.867H84.4949C84.5469 11.5777 84.8199 12.154 85.3139 12.596C85.8079 13.0293 86.4319 13.246 87.1859 13.246C87.6105 13.246 88.0005 13.1723 88.3559 13.025C88.7112 12.869 89.0189 12.6437 89.2789 12.349L89.7989 12.947C89.4955 13.311 89.1142 13.5883 88.6549 13.779C88.2042 13.9697 87.7059 14.065 87.1599 14.065C86.4579 14.065 85.8339 13.9177 85.2879 13.623C84.7505 13.3197 84.3302 12.9037 84.0269 12.375C83.7235 11.8463 83.5719 11.2483 83.5719 10.581C83.5719 9.91367 83.7149 9.31567 84.0009 8.787C84.2955 8.25833 84.6942 7.84667 85.1969 7.552C85.7082 7.25733 86.2802 7.11 86.9129 7.11C87.5455 7.11 88.1132 7.25733 88.6159 7.552C89.1185 7.84667 89.5129 8.25833 89.7989 8.787C90.0849 9.307 90.2279 9.905 90.2279 10.581L90.2149 10.867ZM86.9129 7.903C86.2542 7.903 85.6995 8.11533 85.2489 8.54C84.8069 8.956 84.5555 9.502 84.4949 10.178H89.3439C89.2832 9.502 89.0275 8.956 88.5769 8.54C88.1349 8.11533 87.5802 7.903 86.9129 7.903ZM97.8054 4.9V14H96.5184V6.031H94.4644V4.9H97.8054ZM102.396 8.527C103.696 8.527 104.649 8.774 105.256 9.268C105.871 9.75333 106.179 10.4207 106.179 11.27C106.179 11.8073 106.049 12.2927 105.789 12.726C105.538 13.1507 105.152 13.4887 104.632 13.74C104.121 13.9827 103.488 14.104 102.734 14.104C102.093 14.104 101.473 14.0087 100.875 13.818C100.277 13.6187 99.7829 13.3457 99.3929 12.999L99.9909 11.972C100.303 12.2667 100.702 12.505 101.187 12.687C101.672 12.8603 102.184 12.947 102.721 12.947C103.406 12.947 103.934 12.804 104.307 12.518C104.688 12.2233 104.879 11.8247 104.879 11.322C104.879 10.776 104.671 10.3643 104.255 10.087C103.839 9.801 103.128 9.658 102.123 9.658H100.056L100.537 4.9H105.672V6.031H101.629L101.382 8.527H102.396ZM110.979 14.104C110.259 14.104 109.618 13.922 109.055 13.558C108.5 13.1853 108.062 12.648 107.742 11.946C107.421 11.244 107.261 10.412 107.261 9.45C107.261 8.488 107.421 7.656 107.742 6.954C108.062 6.252 108.5 5.719 109.055 5.355C109.618 4.98233 110.259 4.796 110.979 4.796C111.689 4.796 112.322 4.98233 112.877 5.355C113.44 5.719 113.882 6.252 114.203 6.954C114.523 7.656 114.684 8.488 114.684 9.45C114.684 10.412 114.523 11.244 114.203 11.946C113.882 12.648 113.44 13.1853 112.877 13.558C112.322 13.922 111.689 14.104 110.979 14.104ZM110.979 12.947C111.707 12.947 112.287 12.648 112.721 12.05C113.163 11.452 113.384 10.5853 113.384 9.45C113.384 8.31467 113.163 7.448 112.721 6.85C112.287 6.252 111.707 5.953 110.979 5.953C110.242 5.953 109.653 6.252 109.211 6.85C108.777 7.448 108.561 8.31467 108.561 9.45C108.561 10.5853 108.777 11.452 109.211 12.05C109.653 12.648 110.242 12.947 110.979 12.947ZM122.844 14.065C122.185 14.065 121.592 13.9177 121.063 13.623C120.534 13.3197 120.118 12.9037 119.815 12.375C119.512 11.8463 119.36 11.2483 119.36 10.581C119.36 9.91367 119.512 9.31567 119.815 8.787C120.118 8.25833 120.534 7.84667 121.063 7.552C121.592 7.25733 122.185 7.11 122.844 7.11C123.503 7.11 124.096 7.25733 124.625 7.552C125.154 7.84667 125.565 8.25833 125.86 8.787C126.163 9.31567 126.315 9.91367 126.315 10.581C126.315 11.2483 126.163 11.8463 125.86 12.375C125.565 12.9037 125.154 13.3197 124.625 13.623C124.096 13.9177 123.503 14.065 122.844 14.065ZM122.844 13.246C123.329 13.246 123.763 13.1377 124.144 12.921C124.534 12.6957 124.837 12.3793 125.054 11.972C125.271 11.5647 125.379 11.101 125.379 10.581C125.379 10.061 125.271 9.59733 125.054 9.19C124.837 8.78267 124.534 8.47067 124.144 8.254C123.763 8.02867 123.329 7.916 122.844 7.916C122.359 7.916 121.921 8.02867 121.531 8.254C121.15 8.47067 120.846 8.78267 120.621 9.19C120.404 9.59733 120.296 10.061 120.296 10.581C120.296 11.101 120.404 11.5647 120.621 11.972C120.846 12.3793 121.15 12.6957 121.531 12.921C121.921 13.1377 122.359 13.246 122.844 13.246ZM132.844 7.981H130.257V14H129.334V7.981H126.747V7.162H132.844V7.981ZM137.316 10.438C137.801 10.5507 138.174 10.7457 138.434 11.023C138.702 11.3003 138.837 11.6383 138.837 12.037C138.837 12.4357 138.698 12.791 138.421 13.103C138.152 13.415 137.784 13.6577 137.316 13.831C136.848 13.9957 136.332 14.078 135.769 14.078C135.275 14.078 134.789 14.0087 134.313 13.87C133.836 13.7227 133.42 13.5103 133.065 13.233L133.377 12.544C133.689 12.778 134.053 12.96 134.469 13.09C134.885 13.22 135.305 13.285 135.73 13.285C136.362 13.285 136.878 13.168 137.277 12.934C137.684 12.6913 137.888 12.3663 137.888 11.959C137.888 11.595 137.723 11.3133 137.394 11.114C137.064 10.906 136.614 10.802 136.042 10.802H134.872V10.126H135.99C136.501 10.126 136.913 10.0307 137.225 9.84C137.537 9.64067 137.693 9.37633 137.693 9.047C137.693 8.683 137.515 8.397 137.16 8.189C136.813 7.981 136.358 7.877 135.795 7.877C135.058 7.877 134.33 8.06333 133.611 8.436L133.351 7.721C134.165 7.29633 135.01 7.084 135.886 7.084C136.406 7.084 136.874 7.162 137.29 7.318C137.714 7.46533 138.044 7.67767 138.278 7.955C138.52 8.23233 138.642 8.553 138.642 8.917C138.642 9.26367 138.52 9.57133 138.278 9.84C138.044 10.1087 137.723 10.308 137.316 10.438ZM143.805 9.58C144.663 9.58867 145.317 9.77933 145.768 10.152C146.219 10.5247 146.444 11.062 146.444 11.764C146.444 12.492 146.201 13.051 145.716 13.441C145.231 13.831 144.537 14.0217 143.636 14.013L140.932 14V7.162H141.855V9.554L143.805 9.58ZM147.588 7.162H148.511V14H147.588V7.162ZM143.584 13.311C144.217 13.3197 144.693 13.194 145.014 12.934C145.343 12.6653 145.508 12.2753 145.508 11.764C145.508 11.2613 145.348 10.8887 145.027 10.646C144.706 10.4033 144.225 10.2777 143.584 10.269L141.855 10.243V13.285L143.584 13.311ZM155.494 10.464C156.422 10.6807 156.885 11.2397 156.885 12.141C156.885 12.739 156.664 13.1983 156.222 13.519C155.78 13.8397 155.122 14 154.246 14H151.139V7.162H154.155C154.935 7.162 155.546 7.31367 155.988 7.617C156.43 7.92033 156.651 8.35367 156.651 8.917C156.651 9.28967 156.547 9.61033 156.339 9.879C156.14 10.139 155.858 10.334 155.494 10.464ZM152.036 10.204H154.09C154.619 10.204 155.022 10.1043 155.299 9.905C155.585 9.70567 155.728 9.41533 155.728 9.034C155.728 8.65267 155.585 8.36667 155.299 8.176C155.022 7.98533 154.619 7.89 154.09 7.89H152.036V10.204ZM154.207 13.272C154.797 13.272 155.239 13.1767 155.533 12.986C155.828 12.7953 155.975 12.4963 155.975 12.089C155.975 11.6817 155.841 11.3827 155.572 11.192C155.304 10.9927 154.879 10.893 154.298 10.893H152.036V13.272H154.207ZM161.869 14.065C161.211 14.065 160.617 13.9177 160.088 13.623C159.56 13.3197 159.144 12.9037 158.84 12.375C158.537 11.8463 158.385 11.2483 158.385 10.581C158.385 9.91367 158.537 9.31567 158.84 8.787C159.144 8.25833 159.56 7.84667 160.088 7.552C160.617 7.25733 161.211 7.11 161.869 7.11C162.528 7.11 163.122 7.25733 163.65 7.552C164.179 7.84667 164.591 8.25833 164.885 8.787C165.189 9.31567 165.34 9.91367 165.34 10.581C165.34 11.2483 165.189 11.8463 164.885 12.375C164.591 12.9037 164.179 13.3197 163.65 13.623C163.122 13.9177 162.528 14.065 161.869 14.065ZM161.869 13.246C162.355 13.246 162.788 13.1377 163.169 12.921C163.559 12.6957 163.863 12.3793 164.079 11.972C164.296 11.5647 164.404 11.101 164.404 10.581C164.404 10.061 164.296 9.59733 164.079 9.19C163.863 8.78267 163.559 8.47067 163.169 8.254C162.788 8.02867 162.355 7.916 161.869 7.916C161.384 7.916 160.946 8.02867 160.556 8.254C160.175 8.47067 159.872 8.78267 159.646 9.19C159.43 9.59733 159.321 10.061 159.321 10.581C159.321 11.101 159.43 11.5647 159.646 11.972C159.872 12.3793 160.175 12.6957 160.556 12.921C160.946 13.1377 161.384 13.246 161.869 13.246ZM171.668 10.464C172.595 10.6807 173.059 11.2397 173.059 12.141C173.059 12.739 172.838 13.1983 172.396 13.519C171.954 13.8397 171.295 14 170.42 14H167.313V7.162H170.329C171.109 7.162 171.72 7.31367 172.162 7.617C172.604 7.92033 172.825 8.35367 172.825 8.917C172.825 9.28967 172.721 9.61033 172.513 9.879C172.314 10.139 172.032 10.334 171.668 10.464ZM168.21 10.204H170.264C170.793 10.204 171.196 10.1043 171.473 9.905C171.759 9.70567 171.902 9.41533 171.902 9.034C171.902 8.65267 171.759 8.36667 171.473 8.176C171.196 7.98533 170.793 7.89 170.264 7.89H168.21V10.204ZM170.381 13.272C170.97 13.272 171.412 13.1767 171.707 12.986C172.002 12.7953 172.149 12.4963 172.149 12.089C172.149 11.6817 172.015 11.3827 171.746 11.192C171.477 10.9927 171.053 10.893 170.472 10.893H168.21V13.272H170.381ZM181.485 14.065C180.809 14.065 180.202 13.9177 179.665 13.623C179.136 13.3283 178.72 12.9167 178.417 12.388C178.113 11.8507 177.962 11.2483 177.962 10.581C177.962 9.91367 178.113 9.31567 178.417 8.787C178.72 8.25833 179.136 7.84667 179.665 7.552C180.202 7.25733 180.809 7.11 181.485 7.11C182.074 7.11 182.598 7.227 183.058 7.461C183.526 7.68633 183.894 8.02 184.163 8.462L183.474 8.93C183.248 8.592 182.962 8.34067 182.616 8.176C182.269 8.00267 181.892 7.916 181.485 7.916C180.991 7.916 180.544 8.02867 180.146 8.254C179.756 8.47067 179.448 8.78267 179.223 9.19C179.006 9.59733 178.898 10.061 178.898 10.581C178.898 11.1097 179.006 11.5777 179.223 11.985C179.448 12.3837 179.756 12.6957 180.146 12.921C180.544 13.1377 180.991 13.246 181.485 13.246C181.892 13.246 182.269 13.1637 182.616 12.999C182.962 12.8343 183.248 12.583 183.474 12.245L184.163 12.713C183.894 13.155 183.526 13.493 183.058 13.727C182.59 13.9523 182.065 14.065 181.485 14.065ZM192.173 14.065C191.514 14.065 190.921 13.9177 190.392 13.623C189.863 13.3197 189.447 12.9037 189.144 12.375C188.841 11.8463 188.689 11.2483 188.689 10.581C188.689 9.91367 188.841 9.31567 189.144 8.787C189.447 8.25833 189.863 7.84667 190.392 7.552C190.921 7.25733 191.514 7.11 192.173 7.11C192.832 7.11 193.425 7.25733 193.954 7.552C194.483 7.84667 194.894 8.25833 195.189 8.787C195.492 9.31567 195.644 9.91367 195.644 10.581C195.644 11.2483 195.492 11.8463 195.189 12.375C194.894 12.9037 194.483 13.3197 193.954 13.623C193.425 13.9177 192.832 14.065 192.173 14.065ZM192.173 13.246C192.658 13.246 193.092 13.1377 193.473 12.921C193.863 12.6957 194.166 12.3793 194.383 11.972C194.6 11.5647 194.708 11.101 194.708 10.581C194.708 10.061 194.6 9.59733 194.383 9.19C194.166 8.78267 193.863 8.47067 193.473 8.254C193.092 8.02867 192.658 7.916 192.173 7.916C191.688 7.916 191.25 8.02867 190.86 8.254C190.479 8.47067 190.175 8.78267 189.95 9.19C189.733 9.59733 189.625 10.061 189.625 10.581C189.625 11.101 189.733 11.5647 189.95 11.972C190.175 12.3793 190.479 12.6957 190.86 12.921C191.25 13.1377 191.688 13.246 192.173 13.246ZM204.741 13.194V15.716H203.87V14H197.617V7.162H198.54V13.194H202.713V7.162H203.636V13.194H204.741ZM212.483 10.867H206.763C206.815 11.5777 207.088 12.154 207.582 12.596C208.076 13.0293 208.7 13.246 209.454 13.246C209.879 13.246 210.269 13.1723 210.624 13.025C210.98 12.869 211.287 12.6437 211.547 12.349L212.067 12.947C211.764 13.311 211.383 13.5883 210.923 13.779C210.473 13.9697 209.974 14.065 209.428 14.065C208.726 14.065 208.102 13.9177 207.556 13.623C207.019 13.3197 206.599 12.9037 206.295 12.375C205.992 11.8463 205.84 11.2483 205.84 10.581C205.84 9.91367 205.983 9.31567 206.269 8.787C206.564 8.25833 206.963 7.84667 207.465 7.552C207.977 7.25733 208.549 7.11 209.181 7.11C209.814 7.11 210.382 7.25733 210.884 7.552C211.387 7.84667 211.781 8.25833 212.067 8.787C212.353 9.307 212.496 9.905 212.496 10.581L212.483 10.867ZM209.181 7.903C208.523 7.903 207.968 8.11533 207.517 8.54C207.075 8.956 206.824 9.502 206.763 10.178H211.612C211.552 9.502 211.296 8.956 210.845 8.54C210.403 8.11533 209.849 7.903 209.181 7.903ZM214.54 7.162H215.463V10.191H219.766V7.162H220.689V14H219.766V10.984H215.463V14H214.54V7.162ZM225.795 10.958H224.235V14H223.312V7.162H224.235V10.165H225.808L228.213 7.162H229.214L226.523 10.477L229.409 14H228.317L225.795 10.958ZM233.446 14.065C232.787 14.065 232.193 13.9177 231.665 13.623C231.136 13.3197 230.72 12.9037 230.417 12.375C230.113 11.8463 229.962 11.2483 229.962 10.581C229.962 9.91367 230.113 9.31567 230.417 8.787C230.72 8.25833 231.136 7.84667 231.665 7.552C232.193 7.25733 232.787 7.11 233.446 7.11C234.104 7.11 234.698 7.25733 235.227 7.552C235.755 7.84667 236.167 8.25833 236.462 8.787C236.765 9.31567 236.917 9.91367 236.917 10.581C236.917 11.2483 236.765 11.8463 236.462 12.375C236.167 12.9037 235.755 13.3197 235.227 13.623C234.698 13.9177 234.104 14.065 233.446 14.065ZM233.446 13.246C233.931 13.246 234.364 13.1377 234.746 12.921C235.136 12.6957 235.439 12.3793 235.656 11.972C235.872 11.5647 235.981 11.101 235.981 10.581C235.981 10.061 235.872 9.59733 235.656 9.19C235.439 8.78267 235.136 8.47067 234.746 8.254C234.364 8.02867 233.931 7.916 233.446 7.916C232.96 7.916 232.523 8.02867 232.133 8.254C231.751 8.47067 231.448 8.78267 231.223 9.19C231.006 9.59733 230.898 10.061 230.898 10.581C230.898 11.101 231.006 11.5647 231.223 11.972C231.448 12.3793 231.751 12.6957 232.133 12.921C232.523 13.1377 232.96 13.246 233.446 13.246ZM238.889 7.162H239.812V12.596L244.375 7.162H245.194V14H244.271V8.566L239.721 14H238.889V7.162ZM241.996 6.174C241.407 6.174 240.939 6.02667 240.592 5.732C240.246 5.43733 240.068 5.02133 240.059 4.484H240.722C240.731 4.822 240.852 5.095 241.086 5.303C241.32 5.50233 241.624 5.602 241.996 5.602C242.369 5.602 242.672 5.50233 242.906 5.303C243.149 5.095 243.275 4.822 243.283 4.484H243.946C243.938 5.02133 243.756 5.43733 243.4 5.732C243.054 6.02667 242.586 6.174 241.996 6.174Z" fill="#37373F"/>
<path d="M65.3414 29.5011L60.6364 29.0589C60.3398 29.0321 60.0837 28.8445 59.9623 28.5631L58.2772 24.5025C58.0075 23.8325 57.0504 23.8325 56.7807 24.5025L55.1091 28.5631C55.0012 28.8445 54.7316 29.0321 54.435 29.0589L49.73 29.5011C49.029 29.5681 48.7458 30.4392 49.2716 30.9082L52.8172 34.0039C53.0464 34.2049 53.1408 34.4997 53.0734 34.7946L52.0083 39.1365C51.8466 39.8199 52.588 40.3828 53.2082 40.021L57.1313 37.7294C57.3874 37.582 57.6975 37.582 57.9536 37.7294L61.8767 40.021C62.4968 40.3828 63.2383 39.8334 63.0765 39.1365L62.025 34.7946C61.9576 34.4997 62.052 34.2049 62.2811 34.0039L65.8267 30.9082C66.339 30.4392 66.0424 29.5681 65.3414 29.5011Z" fill="#FC9B09"/>
<path d="M89.0702 29.5011L84.3652 29.0589C84.0686 29.0321 83.8124 28.8445 83.6911 28.5631L82.0059 24.5025C81.7363 23.8325 80.7791 23.8325 80.5095 24.5025L78.8378 28.5631C78.73 28.8445 78.4603 29.0321 78.1637 29.0589L73.4587 29.5011C72.7577 29.5681 72.4746 30.4392 73.0004 30.9082L76.546 34.0039C76.7752 34.2049 76.8695 34.4997 76.8021 34.7946L75.7371 39.1365C75.5753 39.8199 76.3168 40.3828 76.9369 40.021L80.86 37.7294C81.1162 37.582 81.4262 37.582 81.6824 37.7294L85.6055 40.021C86.2256 40.3828 86.9671 39.8334 86.8053 39.1365L85.7538 34.7946C85.6863 34.4997 85.7807 34.2049 86.0099 34.0039L89.5555 30.9082C90.0678 30.4392 89.7712 29.5681 89.0702 29.5011Z" fill="#FC9B09"/>
<path d="M112.799 29.5011L108.094 29.0589C107.797 29.0321 107.541 28.8445 107.42 28.5631L105.735 24.5025C105.465 23.8325 104.508 23.8325 104.238 24.5025L102.567 28.5631C102.459 28.8445 102.189 29.0321 101.893 29.0589L97.1875 29.5011C96.4865 29.5681 96.2034 30.4392 96.7291 30.9082L100.275 34.0039C100.504 34.2049 100.598 34.4997 100.531 34.7946L99.4659 39.1365C99.3041 39.8199 100.046 40.3828 100.666 40.021L104.589 37.7294C104.845 37.582 105.155 37.582 105.411 37.7294L109.334 40.021C109.954 40.3828 110.696 39.8334 110.534 39.1365L109.483 34.7946C109.415 34.4997 109.509 34.2049 109.739 34.0039L113.284 30.9082C113.797 30.4392 113.5 29.5681 112.799 29.5011Z" fill="#FC9B09"/>
<path d="M136.528 29.5011L131.823 29.0589C131.526 29.0321 131.27 28.8445 131.149 28.5631L129.464 24.5025C129.194 23.8325 128.237 23.8325 127.967 24.5025L126.296 28.5631C126.188 28.8445 125.918 29.0321 125.622 29.0589L120.917 29.5011C120.215 29.5681 119.932 30.4392 120.458 30.9082L124.004 34.0039C124.233 34.2049 124.327 34.4997 124.26 34.7946L123.195 39.1365C123.033 39.8199 123.775 40.3828 124.395 40.021L128.318 37.7294C128.574 37.582 128.884 37.582 129.14 37.7294L133.063 40.021C133.683 40.3828 134.425 39.8334 134.263 39.1365L133.212 34.7946C133.144 34.4997 133.238 34.2049 133.468 34.0039L137.013 30.9082C137.526 30.4392 137.229 29.5681 136.528 29.5011Z" fill="#FC9B09"/>
<path d="M160.257 29.5011L155.552 29.0589C155.255 29.0321 154.999 28.8445 154.878 28.5631L153.192 24.5025C152.923 23.8325 151.966 23.8325 151.696 24.5025L150.024 28.5631C149.916 28.8445 149.647 29.0321 149.35 29.0589L144.645 29.5011C143.944 29.5681 143.661 30.4392 144.187 30.9082L147.733 34.0039C147.962 34.2049 148.056 34.4997 147.989 34.7946L146.924 39.1365C146.762 39.8199 147.503 40.3828 148.123 40.021L152.047 37.7294C152.303 37.582 152.613 37.582 152.869 37.7294L156.792 40.021C157.412 40.3828 158.154 39.8334 157.992 39.1365L156.94 34.7946C156.873 34.4997 156.967 34.2049 157.196 34.0039L160.742 30.9082C161.254 30.4392 160.958 29.5681 160.257 29.5011Z" fill="#FC9B09"/>
<path d="M31.6201 16.4839H26.0071V15.709C26.0071 15.2434 25.6297 14.866 25.164 14.866H9.83605C9.37043 14.866 8.99297 15.2434 8.99297 15.709V16.4839H3.37994C2.91432 16.4839 2.53687 16.8614 2.53687 17.327V21.1449C2.53687 22.1887 2.94339 23.1701 3.68152 23.9082C4.41965 24.6463 5.40099 25.0528 6.4448 25.0528H9.20888C10.0161 28.5619 13 31.2488 16.6571 31.6102V35.4054H14.3992C13.0951 35.4054 12.034 36.4664 12.034 37.7705V39.1567C12.034 39.6224 12.4114 39.9998 12.8771 39.9998H22.1232C22.5888 39.9998 22.9663 39.6224 22.9663 39.1567V37.7705C22.9663 36.4664 21.9052 35.4054 20.6011 35.4054H18.3432V31.6102C22.0003 31.2487 24.9842 28.5618 25.7914 25.0528H28.5554C30.7103 25.0528 32.4634 23.2997 32.4634 21.1448V17.327C32.4632 16.8614 32.0858 16.4839 31.6201 16.4839ZM21.28 37.7705V38.3137H13.7201V37.7705C13.7201 37.3961 14.0247 37.0915 14.3991 37.0915H20.601C20.9754 37.0914 21.28 37.396 21.28 37.7705ZM8.99434 23.3667H6.44472C5.85127 23.3667 5.29332 23.1356 4.87379 22.716C4.45402 22.2963 4.22302 21.7383 4.22302 21.145V18.1702H8.99442V23.3667H8.99434ZM24.321 23.1448C24.321 26.9059 21.2611 29.9658 17.5 29.9658C13.7389 29.9658 10.6791 26.9059 10.6791 23.1448V16.5521H24.321V23.1448ZM26.0057 18.1701H30.7772V21.1448C30.7772 22.3699 29.7805 23.3667 28.5553 23.3667H26.0057V18.1701Z" fill="#37373F"/>
<path d="M13.9242 8.60546L13.2916 11.9436C13.2308 12.2641 13.3604 12.5909 13.6244 12.7826C13.8884 12.9744 14.2392 12.9967 14.5252 12.8399L17.5045 11.2068L20.4839 12.8399C20.6106 12.9093 20.7501 12.9436 20.8891 12.9436C21.0638 12.9436 21.2377 12.8894 21.3847 12.7826C21.6486 12.5909 21.7782 12.2641 21.7176 11.9436L21.0852 8.60546L23.5588 6.27665C23.7963 6.05303 23.8835 5.71251 23.7827 5.40226C23.6818 5.09201 23.4112 4.86775 23.0876 4.82648L19.7172 4.39651L18.2669 1.32402C18.1277 1.02903 17.8307 0.84082 17.5045 0.84082C17.1783 0.84082 16.8814 1.02903 16.7421 1.32402L15.2917 4.39651L11.9214 4.82648C11.5978 4.86775 11.3272 5.09201 11.2263 5.40226C11.1256 5.71243 11.2128 6.05311 11.4503 6.27665L13.9242 8.60546ZM15.9636 6.01064C16.2492 5.97418 16.4964 5.79457 16.6193 5.53418L17.5045 3.65886L18.3897 5.53418C18.5126 5.79449 18.7598 5.9741 19.0454 6.01064L21.1027 6.27311L19.5928 7.69454C19.3832 7.8919 19.2888 8.18248 19.3423 8.46535L19.7284 10.503L17.9097 9.50619C17.7835 9.43697 17.644 9.40237 17.5045 9.40237C17.365 9.40237 17.2255 9.43697 17.0993 9.50619L15.2808 10.5029L15.6669 8.46535C15.7206 8.18256 15.6261 7.89182 15.4165 7.69454L13.9065 6.27311L15.9636 6.01064Z" fill="#FC9B09"/>
<path d="M34.9574 8.41036C34.8565 8.10011 34.5859 7.87585 34.2623 7.83458L31.832 7.52449L30.7862 5.30889C30.6469 5.01389 30.3499 4.82568 30.0238 4.82568C29.6976 4.82568 29.4006 5.01389 29.2614 5.30889L28.2155 7.52449L25.7852 7.83458C25.4616 7.87585 25.1909 8.10011 25.0901 8.41036C24.9893 8.72053 25.0765 9.06113 25.314 9.28475L27.098 10.964L26.6418 13.3711C26.581 13.6915 26.7106 14.0184 26.9746 14.2101C27.1216 14.3169 27.2955 14.3711 27.4702 14.3711C27.6091 14.3711 27.7487 14.3368 27.8754 14.2673L30.0238 13.0897L32.1723 14.2673C32.4583 14.4242 32.8091 14.4019 33.0731 14.2101C33.3369 14.0183 33.4665 13.6916 33.4059 13.3711L32.9498 10.964L34.7336 9.28475C34.9709 9.06113 35.0581 8.72061 34.9574 8.41036ZM31.4575 10.0531C31.2479 10.2504 31.1535 10.541 31.2071 10.8239L31.4167 11.9305L30.4289 11.3891C30.3027 11.3199 30.1632 11.2853 30.0237 11.2853C29.8842 11.2853 29.7447 11.3199 29.6185 11.3891L28.6309 11.9304L28.8406 10.8239C28.8942 10.5411 28.7997 10.2504 28.5901 10.053L27.7701 9.28114L28.8872 9.13862C29.1728 9.10224 29.4201 8.92263 29.5429 8.66224L30.0236 7.6438L30.5043 8.66224C30.6272 8.92255 30.8744 9.10216 31.16 9.13862L32.2773 9.28114L31.4575 10.0531Z" fill="#FC9B09"/>
<path d="M4.97487 13.0898L7.12334 14.2674C7.40943 14.4243 7.76022 14.402 8.02415 14.2102C8.28799 14.0184 8.41758 13.6917 8.35696 13.3712L7.9009 10.9641L9.68468 9.28483C9.92219 9.06121 10.0094 8.72069 9.90862 8.41044C9.80777 8.10019 9.53711 7.87593 9.21353 7.83466L6.78314 7.52449L5.73725 5.30889C5.59802 5.01389 5.30101 4.82568 4.97487 4.82568C4.64872 4.82568 4.35171 5.01389 4.21248 5.30889L3.16667 7.52449L0.736367 7.83458C0.412787 7.87585 0.14212 8.10011 0.0412719 8.41036C-0.0594956 8.72053 0.0277025 9.06113 0.265209 9.28475L2.04915 10.964L1.59293 13.3711C1.53215 13.6915 1.66174 14.0184 1.92575 14.2101C2.07276 14.3169 2.24668 14.3711 2.42139 14.3711C2.56038 14.3711 2.69985 14.3368 2.82655 14.2673L4.97487 13.0898ZM3.83848 9.13862C4.12408 9.10224 4.3713 8.92263 4.49415 8.66224L4.97487 7.6438L5.45558 8.66224C5.57843 8.92255 5.82565 9.10216 6.11125 9.13862L7.22853 9.28114L6.40857 10.0531C6.19901 10.2504 6.10459 10.541 6.15814 10.8239L6.36779 11.9305L5.38002 11.3891C5.2538 11.3199 5.11425 11.2853 4.97479 11.2853C4.83532 11.2853 4.69577 11.3199 4.56955 11.3891L3.58203 11.9304L3.79167 10.8239C3.84531 10.5411 3.7508 10.2504 3.54124 10.053L2.72121 9.28114L3.83848 9.13862Z" fill="#FC9B09"/>
</svg>
