<svg width="306" height="22" viewBox="0 0 306 22" fill="none" xmlns="http://www.w3.org/2000/svg">
<path d="M26.936 14.084C25.9653 14.084 25.088 13.8693 24.304 13.44C23.5293 13.0107 22.918 12.418 22.47 11.662C22.0313 10.8967 21.812 10.0427 21.812 9.1C21.812 8.15733 22.0313 7.308 22.47 6.552C22.918 5.78667 23.534 5.18933 24.318 4.76C25.102 4.33067 25.9793 4.116 26.95 4.116C27.678 4.116 28.35 4.23733 28.966 4.48C29.582 4.72267 30.1047 5.07733 30.534 5.544L29.876 6.202C29.1107 5.42733 28.1447 5.04 26.978 5.04C26.2033 5.04 25.4987 5.21733 24.864 5.572C24.2293 5.92667 23.73 6.412 23.366 7.028C23.0113 7.644 22.834 8.33467 22.834 9.1C22.834 9.86533 23.0113 10.556 23.366 11.172C23.73 11.788 24.2293 12.2733 24.864 12.628C25.4987 12.9827 26.2033 13.16 26.978 13.16C28.154 13.16 29.12 12.768 29.876 11.984L30.534 12.642C30.1047 13.1087 29.5773 13.468 28.952 13.72C28.336 13.9627 27.664 14.084 26.936 14.084ZM38.6935 6.636L35.0115 14.882C34.7128 15.5727 34.3675 16.0627 33.9755 16.352C33.5835 16.6413 33.1122 16.786 32.5615 16.786C32.2068 16.786 31.8755 16.73 31.5675 16.618C31.2595 16.506 30.9935 16.338 30.7695 16.114L31.2315 15.372C31.6048 15.7453 32.0528 15.932 32.5755 15.932C32.9115 15.932 33.1962 15.8387 33.4295 15.652C33.6722 15.4653 33.8962 15.148 34.1015 14.7L34.4235 13.986L31.1335 6.636H32.1695L34.9415 12.894L37.7135 6.636H38.6935ZM46.8501 6.636V14H45.8561V7.518H41.2361V14H40.2421V6.636H46.8501ZM56.1157 10.626H49.9557C50.0117 11.3913 50.3057 12.012 50.8377 12.488C51.3697 12.9547 52.0417 13.188 52.8537 13.188C53.3111 13.188 53.7311 13.1087 54.1137 12.95C54.4964 12.782 54.8277 12.5393 55.1077 12.222L55.6677 12.866C55.3411 13.258 54.9304 13.5567 54.4357 13.762C53.9504 13.9673 53.4137 14.07 52.8257 14.07C52.0697 14.07 51.3977 13.9113 50.8097 13.594C50.2311 13.2673 49.7784 12.8193 49.4517 12.25C49.1251 11.6807 48.9617 11.0367 48.9617 10.318C48.9617 9.59933 49.1157 8.95533 49.4237 8.386C49.7411 7.81667 50.1704 7.37333 50.7117 7.056C51.2624 6.73867 51.8784 6.58 52.5597 6.58C53.2411 6.58 53.8524 6.73867 54.3937 7.056C54.9351 7.37333 55.3597 7.81667 55.6677 8.386C55.9757 8.946 56.1297 9.59 56.1297 10.318L56.1157 10.626ZM52.5597 7.434C51.8504 7.434 51.2531 7.66267 50.7677 8.12C50.2917 8.568 50.0211 9.156 49.9557 9.884H55.1777C55.1124 9.156 54.8371 8.568 54.3517 8.12C53.8757 7.66267 53.2784 7.434 52.5597 7.434ZM62.124 6.58C62.8147 6.58 63.44 6.73867 64 7.056C64.56 7.364 64.9987 7.80267 65.316 8.372C65.6333 8.94133 65.792 9.59 65.792 10.318C65.792 11.0553 65.6333 11.7087 65.316 12.278C64.9987 12.8473 64.56 13.2907 64 13.608C63.4493 13.916 62.824 14.07 62.124 14.07C61.5267 14.07 60.9853 13.9487 60.5 13.706C60.024 13.454 59.632 13.09 59.324 12.614V16.716H58.33V6.636H59.282V8.092C59.5807 7.60667 59.9727 7.23333 60.458 6.972C60.9527 6.71067 61.508 6.58 62.124 6.58ZM62.054 13.188C62.5673 13.188 63.034 13.0713 63.454 12.838C63.874 12.5953 64.2007 12.2547 64.434 11.816C64.6767 11.3773 64.798 10.878 64.798 10.318C64.798 9.758 64.6767 9.26333 64.434 8.834C64.2007 8.39533 63.874 8.05467 63.454 7.812C63.034 7.56933 62.5673 7.448 62.054 7.448C61.5313 7.448 61.06 7.56933 60.64 7.812C60.2293 8.05467 59.9027 8.39533 59.66 8.834C59.4267 9.26333 59.31 9.758 59.31 10.318C59.31 10.878 59.4267 11.3773 59.66 11.816C59.9027 12.2547 60.2293 12.5953 60.64 12.838C61.06 13.0713 61.5313 13.188 62.054 13.188ZM67.7457 4.2H68.9217L68.7117 11.06H67.9417L67.7457 4.2ZM68.3337 14.07C68.1283 14.07 67.951 14 67.8017 13.86C67.6617 13.7107 67.5917 13.538 67.5917 13.342C67.5917 13.1367 67.6617 12.9687 67.8017 12.838C67.9417 12.698 68.119 12.628 68.3337 12.628C68.539 12.628 68.7117 12.698 68.8517 12.838C68.9917 12.9687 69.0617 13.1367 69.0617 13.342C69.0617 13.538 68.9917 13.7107 68.8517 13.86C68.7117 14 68.539 14.07 68.3337 14.07ZM82.4105 4.2V14H81.3885V11.032H78.4625C78.3318 11.032 78.1451 11.0227 77.9025 11.004L75.8445 14H74.7385L76.9645 10.822C76.2458 10.6073 75.6951 10.2293 75.3125 9.688C74.9298 9.13733 74.7385 8.46533 74.7385 7.672C74.7385 6.57067 75.0838 5.71667 75.7745 5.11C76.4745 4.50333 77.4171 4.2 78.6025 4.2H82.4105ZM75.7745 7.644C75.7745 8.44667 76.0078 9.06733 76.4745 9.506C76.9505 9.93533 77.6411 10.15 78.5465 10.15H81.3885V5.096H78.6445C77.7298 5.096 77.0205 5.31533 76.5165 5.754C76.0218 6.18333 75.7745 6.81333 75.7745 7.644ZM92.7164 6.818C93.3978 6.818 94.0044 6.972 94.5364 7.28C95.0778 7.57867 95.4978 8.00333 95.7964 8.554C96.0951 9.09533 96.2444 9.716 96.2444 10.416C96.2444 11.1347 96.0858 11.774 95.7684 12.334C95.4604 12.8847 95.0264 13.314 94.4664 13.622C93.9064 13.93 93.2624 14.084 92.5344 14.084C91.3118 14.084 90.3644 13.6547 89.6924 12.796C89.0204 11.9373 88.6844 10.752 88.6844 9.24C88.6844 7.66267 88.9831 6.454 89.5804 5.614C90.1871 4.774 91.1298 4.20467 92.4084 3.906L95.7124 3.15L95.8804 4.06L92.7724 4.774C91.7178 5.00733 90.9431 5.42267 90.4484 6.02C89.9538 6.608 89.6831 7.48067 89.6364 8.638C89.9351 8.06867 90.3504 7.62533 90.8824 7.308C91.4144 6.98133 92.0258 6.818 92.7164 6.818ZM92.5624 13.258C93.0758 13.258 93.5331 13.1413 93.9344 12.908C94.3451 12.6653 94.6624 12.3293 94.8864 11.9C95.1198 11.4707 95.2364 10.9853 95.2364 10.444C95.2364 9.90267 95.1244 9.42667 94.9004 9.016C94.6764 8.60533 94.3591 8.288 93.9484 8.064C93.5471 7.83067 93.0851 7.714 92.5624 7.714C92.0398 7.714 91.5731 7.83067 91.1624 8.064C90.7611 8.288 90.4438 8.60533 90.2104 9.016C89.9864 9.42667 89.8744 9.90267 89.8744 10.444C89.8744 10.9853 89.9864 11.4707 90.2104 11.9C90.4438 12.3293 90.7658 12.6653 91.1764 12.908C91.5871 13.1413 92.0491 13.258 92.5624 13.258ZM101.469 9.24C102.393 9.24933 103.098 9.45467 103.583 9.856C104.068 10.2573 104.311 10.836 104.311 11.592C104.311 12.376 104.05 12.978 103.527 13.398C103.004 13.818 102.258 14.0233 101.287 14.014L98.3749 14V6.636H99.3689V9.212L101.469 9.24ZM105.543 6.636H106.537V14H105.543V6.636ZM101.231 13.258C101.912 13.2673 102.426 13.132 102.771 12.852C103.126 12.5627 103.303 12.1427 103.303 11.592C103.303 11.0507 103.13 10.6493 102.785 10.388C102.44 10.1267 101.922 9.99133 101.231 9.982L99.3689 9.954V13.23L101.231 13.258ZM116.615 10.164C117.138 10.2853 117.539 10.4953 117.819 10.794C118.109 11.0927 118.253 11.4567 118.253 11.886C118.253 12.3153 118.104 12.698 117.805 13.034C117.516 13.37 117.119 13.6313 116.615 13.818C116.111 13.9953 115.556 14.084 114.949 14.084C114.417 14.084 113.895 14.0093 113.381 13.86C112.868 13.7013 112.42 13.4727 112.037 13.174L112.373 12.432C112.709 12.684 113.101 12.88 113.549 13.02C113.997 13.16 114.45 13.23 114.907 13.23C115.589 13.23 116.144 13.104 116.573 12.852C117.012 12.5907 117.231 12.2407 117.231 11.802C117.231 11.41 117.054 11.1067 116.699 10.892C116.345 10.668 115.859 10.556 115.243 10.556H113.983V9.828H115.187C115.738 9.828 116.181 9.72533 116.517 9.52C116.853 9.30533 117.021 9.02067 117.021 8.666C117.021 8.274 116.83 7.966 116.447 7.742C116.074 7.518 115.584 7.406 114.977 7.406C114.184 7.406 113.4 7.60667 112.625 8.008L112.345 7.238C113.223 6.78067 114.133 6.552 115.075 6.552C115.635 6.552 116.139 6.636 116.587 6.804C117.045 6.96267 117.399 7.19133 117.651 7.49C117.913 7.78867 118.043 8.134 118.043 8.526C118.043 8.89933 117.913 9.23067 117.651 9.52C117.399 9.80933 117.054 10.024 116.615 10.164ZM123.044 6.58C124.005 6.58 124.742 6.82267 125.256 7.308C125.769 7.784 126.026 8.49333 126.026 9.436V14H125.074V12.852C124.85 13.2347 124.518 13.5333 124.08 13.748C123.65 13.9627 123.137 14.07 122.54 14.07C121.718 14.07 121.065 13.874 120.58 13.482C120.094 13.09 119.852 12.572 119.852 11.928C119.852 11.3027 120.076 10.7987 120.524 10.416C120.981 10.0333 121.704 9.842 122.694 9.842H125.032V9.394C125.032 8.75933 124.854 8.27867 124.5 7.952C124.145 7.616 123.627 7.448 122.946 7.448C122.479 7.448 122.031 7.52733 121.602 7.686C121.172 7.83533 120.804 8.04533 120.496 8.316L120.048 7.574C120.421 7.25667 120.869 7.014 121.392 6.846C121.914 6.66867 122.465 6.58 123.044 6.58ZM122.694 13.286C123.254 13.286 123.734 13.16 124.136 12.908C124.537 12.6467 124.836 12.2733 125.032 11.788V10.584H122.722C121.462 10.584 120.832 11.0227 120.832 11.9C120.832 12.3293 120.995 12.67 121.322 12.922C121.648 13.1647 122.106 13.286 122.694 13.286ZM131.346 10.724H129.666V14H128.672V6.636H129.666V9.87H131.36L133.95 6.636H135.028L132.13 10.206L135.238 14H134.062L131.346 10.724ZM139.204 6.58C140.165 6.58 140.903 6.82267 141.416 7.308C141.929 7.784 142.186 8.49333 142.186 9.436V14H141.234V12.852C141.01 13.2347 140.679 13.5333 140.24 13.748C139.811 13.9627 139.297 14.07 138.7 14.07C137.879 14.07 137.225 13.874 136.74 13.482C136.255 13.09 136.012 12.572 136.012 11.928C136.012 11.3027 136.236 10.7987 136.684 10.416C137.141 10.0333 137.865 9.842 138.854 9.842H141.192V9.394C141.192 8.75933 141.015 8.27867 140.66 7.952C140.305 7.616 139.787 7.448 139.106 7.448C138.639 7.448 138.191 7.52733 137.762 7.686C137.333 7.83533 136.964 8.04533 136.656 8.316L136.208 7.574C136.581 7.25667 137.029 7.014 137.552 6.846C138.075 6.66867 138.625 6.58 139.204 6.58ZM138.854 13.286C139.414 13.286 139.895 13.16 140.296 12.908C140.697 12.6467 140.996 12.2733 141.192 11.788V10.584H138.882C137.622 10.584 136.992 11.0227 136.992 11.9C136.992 12.3293 137.155 12.67 137.482 12.922C137.809 13.1647 138.266 13.286 138.854 13.286ZM148.266 10.164C148.788 10.2853 149.19 10.4953 149.47 10.794C149.759 11.0927 149.904 11.4567 149.904 11.886C149.904 12.3153 149.754 12.698 149.456 13.034C149.166 13.37 148.77 13.6313 148.266 13.818C147.762 13.9953 147.206 14.084 146.6 14.084C146.068 14.084 145.545 14.0093 145.032 13.86C144.518 13.7013 144.07 13.4727 143.688 13.174L144.024 12.432C144.36 12.684 144.752 12.88 145.2 13.02C145.648 13.16 146.1 13.23 146.558 13.23C147.239 13.23 147.794 13.104 148.224 12.852C148.662 12.5907 148.882 12.2407 148.882 11.802C148.882 11.41 148.704 11.1067 148.35 10.892C147.995 10.668 147.51 10.556 146.894 10.556H145.634V9.828H146.838C147.388 9.828 147.832 9.72533 148.168 9.52C148.504 9.30533 148.672 9.02067 148.672 8.666C148.672 8.274 148.48 7.966 148.098 7.742C147.724 7.518 147.234 7.406 146.628 7.406C145.834 7.406 145.05 7.60667 144.276 8.008L143.996 7.238C144.873 6.78067 145.783 6.552 146.726 6.552C147.286 6.552 147.79 6.636 148.238 6.804C148.695 6.96267 149.05 7.19133 149.302 7.49C149.563 7.78867 149.694 8.134 149.694 8.526C149.694 8.89933 149.563 9.23067 149.302 9.52C149.05 9.80933 148.704 10.024 148.266 10.164ZM154.694 6.58C155.655 6.58 156.393 6.82267 156.906 7.308C157.419 7.784 157.676 8.49333 157.676 9.436V14H156.724V12.852C156.5 13.2347 156.169 13.5333 155.73 13.748C155.301 13.9627 154.787 14.07 154.19 14.07C153.369 14.07 152.715 13.874 152.23 13.482C151.745 13.09 151.502 12.572 151.502 11.928C151.502 11.3027 151.726 10.7987 152.174 10.416C152.631 10.0333 153.355 9.842 154.344 9.842H156.682V9.394C156.682 8.75933 156.505 8.27867 156.15 7.952C155.795 7.616 155.277 7.448 154.596 7.448C154.129 7.448 153.681 7.52733 153.252 7.686C152.823 7.83533 152.454 8.04533 152.146 8.316L151.698 7.574C152.071 7.25667 152.519 7.014 153.042 6.846C153.565 6.66867 154.115 6.58 154.694 6.58ZM154.344 13.286C154.904 13.286 155.385 13.16 155.786 12.908C156.187 12.6467 156.486 12.2733 156.682 11.788V10.584H154.372C153.112 10.584 152.482 11.0227 152.482 11.9C152.482 12.3293 152.645 12.67 152.972 12.922C153.299 13.1647 153.756 13.286 154.344 13.286ZM166.342 6.636V14H165.348V7.518H161.82L161.722 9.338C161.648 10.8687 161.47 12.0447 161.19 12.866C160.91 13.6873 160.411 14.098 159.692 14.098C159.496 14.098 159.258 14.0607 158.978 13.986L159.048 13.132C159.216 13.1693 159.333 13.188 159.398 13.188C159.781 13.188 160.07 13.0107 160.266 12.656C160.462 12.3013 160.593 11.8627 160.658 11.34C160.724 10.8173 160.78 10.1267 160.826 9.268L160.952 6.636H166.342ZM171.702 6.58C172.663 6.58 173.401 6.82267 173.914 7.308C174.427 7.784 174.684 8.49333 174.684 9.436V14H173.732V12.852C173.508 13.2347 173.177 13.5333 172.738 13.748C172.309 13.9627 171.795 14.07 171.198 14.07C170.377 14.07 169.723 13.874 169.238 13.482C168.753 13.09 168.51 12.572 168.51 11.928C168.51 11.3027 168.734 10.7987 169.182 10.416C169.639 10.0333 170.363 9.842 171.352 9.842H173.69V9.394C173.69 8.75933 173.513 8.27867 173.158 7.952C172.803 7.616 172.285 7.448 171.604 7.448C171.137 7.448 170.689 7.52733 170.26 7.686C169.831 7.83533 169.462 8.04533 169.154 8.316L168.706 7.574C169.079 7.25667 169.527 7.014 170.05 6.846C170.573 6.66867 171.123 6.58 171.702 6.58ZM171.352 13.286C171.912 13.286 172.393 13.16 172.794 12.908C173.195 12.6467 173.494 12.2733 173.69 11.788V10.584H171.38C170.12 10.584 169.49 11.0227 169.49 11.9C169.49 12.3293 169.653 12.67 169.98 12.922C170.307 13.1647 170.764 13.286 171.352 13.286ZM184.074 14.07C183.346 14.07 182.693 13.9113 182.114 13.594C181.545 13.2767 181.097 12.8333 180.77 12.264C180.443 11.6853 180.28 11.0367 180.28 10.318C180.28 9.59933 180.443 8.95533 180.77 8.386C181.097 7.81667 181.545 7.37333 182.114 7.056C182.693 6.73867 183.346 6.58 184.074 6.58C184.709 6.58 185.273 6.706 185.768 6.958C186.272 7.20067 186.669 7.56 186.958 8.036L186.216 8.54C185.973 8.176 185.665 7.90533 185.292 7.728C184.919 7.54133 184.513 7.448 184.074 7.448C183.542 7.448 183.061 7.56933 182.632 7.812C182.212 8.04533 181.881 8.38133 181.638 8.82C181.405 9.25867 181.288 9.758 181.288 10.318C181.288 10.8873 181.405 11.3913 181.638 11.83C181.881 12.2593 182.212 12.5953 182.632 12.838C183.061 13.0713 183.542 13.188 184.074 13.188C184.513 13.188 184.919 13.0993 185.292 12.922C185.665 12.7447 185.973 12.474 186.216 12.11L186.958 12.614C186.669 13.09 186.272 13.454 185.768 13.706C185.264 13.9487 184.699 14.07 184.074 14.07ZM192.764 9.212C193.669 9.212 194.36 9.41733 194.836 9.828C195.312 10.2387 195.55 10.8173 195.55 11.564C195.55 12.3573 195.293 12.964 194.78 13.384C194.267 13.7947 193.529 14 192.568 14H189.656V7.518H187.36V6.636H190.65V9.212H192.764ZM192.554 13.23C193.207 13.23 193.702 13.09 194.038 12.81C194.374 12.53 194.542 12.1147 194.542 11.564C194.542 10.5 193.879 9.968 192.554 9.968H190.65V13.23H192.554ZM203.881 10.626H197.721C197.777 11.3913 198.071 12.012 198.603 12.488C199.135 12.9547 199.807 13.188 200.619 13.188C201.077 13.188 201.497 13.1087 201.879 12.95C202.262 12.782 202.593 12.5393 202.873 12.222L203.433 12.866C203.107 13.258 202.696 13.5567 202.201 13.762C201.716 13.9673 201.179 14.07 200.591 14.07C199.835 14.07 199.163 13.9113 198.575 13.594C197.997 13.2673 197.544 12.8193 197.217 12.25C196.891 11.6807 196.727 11.0367 196.727 10.318C196.727 9.59933 196.881 8.95533 197.189 8.386C197.507 7.81667 197.936 7.37333 198.477 7.056C199.028 6.73867 199.644 6.58 200.325 6.58C201.007 6.58 201.618 6.73867 202.159 7.056C202.701 7.37333 203.125 7.81667 203.433 8.386C203.741 8.946 203.895 9.59 203.895 10.318L203.881 10.626ZM200.325 7.434C199.616 7.434 199.019 7.66267 198.533 8.12C198.057 8.568 197.787 9.156 197.721 9.884H202.943C202.878 9.156 202.603 8.568 202.117 8.12C201.641 7.66267 201.044 7.434 200.325 7.434ZM214.328 6.636V14H213.418V8.176L210.436 13.104H209.988L207.006 8.162V14H206.096V6.636H207.104L210.226 11.942L213.404 6.636H214.328ZM219.83 10.724H218.15V14H217.156V6.636H218.15V9.87H219.844L222.434 6.636H223.512L220.614 10.206L223.722 14H222.546L219.83 10.724ZM231.125 6.636L227.443 14.882C227.144 15.5727 226.799 16.0627 226.407 16.352C226.015 16.6413 225.544 16.786 224.993 16.786C224.638 16.786 224.307 16.73 223.999 16.618C223.691 16.506 223.425 16.338 223.201 16.114L223.663 15.372C224.036 15.7453 224.484 15.932 225.007 15.932C225.343 15.932 225.628 15.8387 225.861 15.652C226.104 15.4653 226.328 15.148 226.533 14.7L226.855 13.986L223.565 6.636H224.601L227.373 12.894L230.145 6.636H231.125ZM239.418 14.07C238.69 14.07 238.036 13.9113 237.458 13.594C236.888 13.2767 236.44 12.8333 236.114 12.264C235.787 11.6853 235.624 11.0367 235.624 10.318C235.624 9.59933 235.787 8.95533 236.114 8.386C236.44 7.81667 236.888 7.37333 237.458 7.056C238.036 6.73867 238.69 6.58 239.418 6.58C240.052 6.58 240.617 6.706 241.112 6.958C241.616 7.20067 242.012 7.56 242.302 8.036L241.56 8.54C241.317 8.176 241.009 7.90533 240.636 7.728C240.262 7.54133 239.856 7.448 239.418 7.448C238.886 7.448 238.405 7.56933 237.976 7.812C237.556 8.04533 237.224 8.38133 236.982 8.82C236.748 9.25867 236.632 9.758 236.632 10.318C236.632 10.8873 236.748 11.3913 236.982 11.83C237.224 12.2593 237.556 12.5953 237.976 12.838C238.405 13.0713 238.886 13.188 239.418 13.188C239.856 13.188 240.262 13.0993 240.636 12.922C241.009 12.7447 241.317 12.474 241.56 12.11L242.302 12.614C242.012 13.09 241.616 13.454 241.112 13.706C240.608 13.9487 240.043 14.07 239.418 14.07ZM244.227 6.636H245.221V9.898H249.855V6.636H250.849V14H249.855V10.752H245.221V14H244.227V6.636ZM256.712 14.07C256.002 14.07 255.363 13.9113 254.794 13.594C254.224 13.2673 253.776 12.8193 253.45 12.25C253.123 11.6807 252.96 11.0367 252.96 10.318C252.96 9.59933 253.123 8.95533 253.45 8.386C253.776 7.81667 254.224 7.37333 254.794 7.056C255.363 6.73867 256.002 6.58 256.712 6.58C257.421 6.58 258.06 6.73867 258.63 7.056C259.199 7.37333 259.642 7.81667 259.96 8.386C260.286 8.95533 260.45 9.59933 260.45 10.318C260.45 11.0367 260.286 11.6807 259.96 12.25C259.642 12.8193 259.199 13.2673 258.63 13.594C258.06 13.9113 257.421 14.07 256.712 14.07ZM256.712 13.188C257.234 13.188 257.701 13.0713 258.112 12.838C258.532 12.5953 258.858 12.2547 259.092 11.816C259.325 11.3773 259.442 10.878 259.442 10.318C259.442 9.758 259.325 9.25867 259.092 8.82C258.858 8.38133 258.532 8.04533 258.112 7.812C257.701 7.56933 257.234 7.448 256.712 7.448C256.189 7.448 255.718 7.56933 255.298 7.812C254.887 8.04533 254.56 8.38133 254.318 8.82C254.084 9.25867 253.968 9.758 253.968 10.318C253.968 10.878 254.084 11.3773 254.318 11.816C254.56 12.2547 254.887 12.5953 255.298 12.838C255.718 13.0713 256.189 13.188 256.712 13.188ZM267.264 10.192C268.263 10.4253 268.762 11.0273 268.762 11.998C268.762 12.642 268.524 13.1367 268.048 13.482C267.572 13.8273 266.863 14 265.92 14H262.574V6.636H265.822C266.662 6.636 267.32 6.79933 267.796 7.126C268.272 7.45267 268.51 7.91933 268.51 8.526C268.51 8.92733 268.398 9.27267 268.174 9.562C267.959 9.842 267.656 10.052 267.264 10.192ZM263.54 9.912H265.752C266.321 9.912 266.755 9.80467 267.054 9.59C267.362 9.37533 267.516 9.06267 267.516 8.652C267.516 8.24133 267.362 7.93333 267.054 7.728C266.755 7.52267 266.321 7.42 265.752 7.42H263.54V9.912ZM265.878 13.216C266.513 13.216 266.989 13.1133 267.306 12.908C267.623 12.7027 267.782 12.3807 267.782 11.942C267.782 11.5033 267.637 11.1813 267.348 10.976C267.059 10.7613 266.601 10.654 265.976 10.654H263.54V13.216H265.878ZM273.626 6.58C274.587 6.58 275.324 6.82267 275.838 7.308C276.351 7.784 276.608 8.49333 276.608 9.436V14H275.656V12.852C275.432 13.2347 275.1 13.5333 274.662 13.748C274.232 13.9627 273.719 14.07 273.122 14.07C272.3 14.07 271.647 13.874 271.162 13.482C270.676 13.09 270.434 12.572 270.434 11.928C270.434 11.3027 270.658 10.7987 271.106 10.416C271.563 10.0333 272.286 9.842 273.276 9.842H275.614V9.394C275.614 8.75933 275.436 8.27867 275.082 7.952C274.727 7.616 274.209 7.448 273.528 7.448C273.061 7.448 272.613 7.52733 272.184 7.686C271.754 7.83533 271.386 8.04533 271.078 8.316L270.63 7.574C271.003 7.25667 271.451 7.014 271.974 6.846C272.496 6.66867 273.047 6.58 273.626 6.58ZM273.276 13.286C273.836 13.286 274.316 13.16 274.718 12.908C275.119 12.6467 275.418 12.2733 275.614 11.788V10.584H273.304C272.044 10.584 271.414 11.0227 271.414 11.9C271.414 12.3293 271.577 12.67 271.904 12.922C272.23 13.1647 272.688 13.286 273.276 13.286ZM279.072 4.2H280.248L280.038 11.06H279.268L279.072 4.2ZM279.66 14.07C279.455 14.07 279.277 14 279.128 13.86C278.988 13.7107 278.918 13.538 278.918 13.342C278.918 13.1367 278.988 12.9687 279.128 12.838C279.268 12.698 279.445 12.628 279.66 12.628C279.865 12.628 280.038 12.698 280.178 12.838C280.318 12.9687 280.388 13.1367 280.388 13.342C280.388 13.538 280.318 13.7107 280.178 13.86C280.038 14 279.865 14.07 279.66 14.07Z" fill="#B3B3B3"/>
<path d="M1 7.5L6.6 13.5L16 2" stroke="#6AAD4A" stroke-width="2.5"/>
</svg>
