<svg width="290" height="22" viewBox="0 0 290 22" fill="none" xmlns="http://www.w3.org/2000/svg">
<path d="M26.936 14.084C25.9653 14.084 25.088 13.8693 24.304 13.44C23.5293 13.0107 22.918 12.418 22.47 11.662C22.0313 10.8967 21.812 10.0427 21.812 9.1C21.812 8.15733 22.0313 7.308 22.47 6.552C22.918 5.78667 23.534 5.18933 24.318 4.76C25.102 4.33067 25.9793 4.116 26.95 4.116C27.678 4.116 28.35 4.23733 28.966 4.48C29.582 4.72267 30.1047 5.07733 30.534 5.544L29.876 6.202C29.1107 5.42733 28.1447 5.04 26.978 5.04C26.2033 5.04 25.4987 5.21733 24.864 5.572C24.2293 5.92667 23.73 6.412 23.366 7.028C23.0113 7.644 22.834 8.33467 22.834 9.1C22.834 9.86533 23.0113 10.556 23.366 11.172C23.73 11.788 24.2293 12.2733 24.864 12.628C25.4987 12.9827 26.2033 13.16 26.978 13.16C28.154 13.16 29.12 12.768 29.876 11.984L30.534 12.642C30.1047 13.1087 29.5773 13.468 28.952 13.72C28.336 13.9627 27.664 14.084 26.936 14.084ZM38.6935 6.636L35.0115 14.882C34.7128 15.5727 34.3675 16.0627 33.9755 16.352C33.5835 16.6413 33.1122 16.786 32.5615 16.786C32.2068 16.786 31.8755 16.73 31.5675 16.618C31.2595 16.506 30.9935 16.338 30.7695 16.114L31.2315 15.372C31.6048 15.7453 32.0528 15.932 32.5755 15.932C32.9115 15.932 33.1962 15.8387 33.4295 15.652C33.6722 15.4653 33.8962 15.148 34.1015 14.7L34.4235 13.986L31.1335 6.636H32.1695L34.9415 12.894L37.7135 6.636H38.6935ZM46.8501 6.636V14H45.8561V7.518H41.2361V14H40.2421V6.636H46.8501ZM56.1157 10.626H49.9557C50.0117 11.3913 50.3057 12.012 50.8377 12.488C51.3697 12.9547 52.0417 13.188 52.8537 13.188C53.3111 13.188 53.7311 13.1087 54.1137 12.95C54.4964 12.782 54.8277 12.5393 55.1077 12.222L55.6677 12.866C55.3411 13.258 54.9304 13.5567 54.4357 13.762C53.9504 13.9673 53.4137 14.07 52.8257 14.07C52.0697 14.07 51.3977 13.9113 50.8097 13.594C50.2311 13.2673 49.7784 12.8193 49.4517 12.25C49.1251 11.6807 48.9617 11.0367 48.9617 10.318C48.9617 9.59933 49.1157 8.95533 49.4237 8.386C49.7411 7.81667 50.1704 7.37333 50.7117 7.056C51.2624 6.73867 51.8784 6.58 52.5597 6.58C53.2411 6.58 53.8524 6.73867 54.3937 7.056C54.9351 7.37333 55.3597 7.81667 55.6677 8.386C55.9757 8.946 56.1297 9.59 56.1297 10.318L56.1157 10.626ZM52.5597 7.434C51.8504 7.434 51.2531 7.66267 50.7677 8.12C50.2917 8.568 50.0211 9.156 49.9557 9.884H55.1777C55.1124 9.156 54.8371 8.568 54.3517 8.12C53.8757 7.66267 53.2784 7.434 52.5597 7.434ZM62.124 6.58C62.8147 6.58 63.44 6.73867 64 7.056C64.56 7.364 64.9987 7.80267 65.316 8.372C65.6333 8.94133 65.792 9.59 65.792 10.318C65.792 11.0553 65.6333 11.7087 65.316 12.278C64.9987 12.8473 64.56 13.2907 64 13.608C63.4493 13.916 62.824 14.07 62.124 14.07C61.5267 14.07 60.9853 13.9487 60.5 13.706C60.024 13.454 59.632 13.09 59.324 12.614V16.716H58.33V6.636H59.282V8.092C59.5807 7.60667 59.9727 7.23333 60.458 6.972C60.9527 6.71067 61.508 6.58 62.124 6.58ZM62.054 13.188C62.5673 13.188 63.034 13.0713 63.454 12.838C63.874 12.5953 64.2007 12.2547 64.434 11.816C64.6767 11.3773 64.798 10.878 64.798 10.318C64.798 9.758 64.6767 9.26333 64.434 8.834C64.2007 8.39533 63.874 8.05467 63.454 7.812C63.034 7.56933 62.5673 7.448 62.054 7.448C61.5313 7.448 61.06 7.56933 60.64 7.812C60.2293 8.05467 59.9027 8.39533 59.66 8.834C59.4267 9.26333 59.31 9.758 59.31 10.318C59.31 10.878 59.4267 11.3773 59.66 11.816C59.9027 12.2547 60.2293 12.5953 60.64 12.838C61.06 13.0713 61.5313 13.188 62.054 13.188ZM67.7457 4.2H68.9217L68.7117 11.06H67.9417L67.7457 4.2ZM68.3337 14.07C68.1283 14.07 67.951 14 67.8017 13.86C67.6617 13.7107 67.5917 13.538 67.5917 13.342C67.5917 13.1367 67.6617 12.9687 67.8017 12.838C67.9417 12.698 68.119 12.628 68.3337 12.628C68.539 12.628 68.7117 12.698 68.8517 12.838C68.9917 12.9687 69.0617 13.1367 69.0617 13.342C69.0617 13.538 68.9917 13.7107 68.8517 13.86C68.7117 14 68.539 14.07 68.3337 14.07ZM82.4105 4.2V14H81.3885V11.032H78.4625C78.3318 11.032 78.1451 11.0227 77.9025 11.004L75.8445 14H74.7385L76.9645 10.822C76.2458 10.6073 75.6951 10.2293 75.3125 9.688C74.9298 9.13733 74.7385 8.46533 74.7385 7.672C74.7385 6.57067 75.0838 5.71667 75.7745 5.11C76.4745 4.50333 77.4171 4.2 78.6025 4.2H82.4105ZM75.7745 7.644C75.7745 8.44667 76.0078 9.06733 76.4745 9.506C76.9505 9.93533 77.6411 10.15 78.5465 10.15H81.3885V5.096H78.6445C77.7298 5.096 77.0205 5.31533 76.5165 5.754C76.0218 6.18333 75.7745 6.81333 75.7745 7.644ZM92.7164 6.818C93.3978 6.818 94.0044 6.972 94.5364 7.28C95.0778 7.57867 95.4978 8.00333 95.7964 8.554C96.0951 9.09533 96.2444 9.716 96.2444 10.416C96.2444 11.1347 96.0858 11.774 95.7684 12.334C95.4604 12.8847 95.0264 13.314 94.4664 13.622C93.9064 13.93 93.2624 14.084 92.5344 14.084C91.3118 14.084 90.3644 13.6547 89.6924 12.796C89.0204 11.9373 88.6844 10.752 88.6844 9.24C88.6844 7.66267 88.9831 6.454 89.5804 5.614C90.1871 4.774 91.1298 4.20467 92.4084 3.906L95.7124 3.15L95.8804 4.06L92.7724 4.774C91.7178 5.00733 90.9431 5.42267 90.4484 6.02C89.9538 6.608 89.6831 7.48067 89.6364 8.638C89.9351 8.06867 90.3504 7.62533 90.8824 7.308C91.4144 6.98133 92.0258 6.818 92.7164 6.818ZM92.5624 13.258C93.0758 13.258 93.5331 13.1413 93.9344 12.908C94.3451 12.6653 94.6624 12.3293 94.8864 11.9C95.1198 11.4707 95.2364 10.9853 95.2364 10.444C95.2364 9.90267 95.1244 9.42667 94.9004 9.016C94.6764 8.60533 94.3591 8.288 93.9484 8.064C93.5471 7.83067 93.0851 7.714 92.5624 7.714C92.0398 7.714 91.5731 7.83067 91.1624 8.064C90.7611 8.288 90.4438 8.60533 90.2104 9.016C89.9864 9.42667 89.8744 9.90267 89.8744 10.444C89.8744 10.9853 89.9864 11.4707 90.2104 11.9C90.4438 12.3293 90.7658 12.6653 91.1764 12.908C91.5871 13.1413 92.0491 13.258 92.5624 13.258ZM101.469 9.24C102.393 9.24933 103.098 9.45467 103.583 9.856C104.068 10.2573 104.311 10.836 104.311 11.592C104.311 12.376 104.05 12.978 103.527 13.398C103.004 13.818 102.258 14.0233 101.287 14.014L98.3749 14V6.636H99.3689V9.212L101.469 9.24ZM105.543 6.636H106.537V14H105.543V6.636ZM101.231 13.258C101.912 13.2673 102.426 13.132 102.771 12.852C103.126 12.5627 103.303 12.1427 103.303 11.592C103.303 11.0507 103.13 10.6493 102.785 10.388C102.44 10.1267 101.922 9.99133 101.231 9.982L99.3689 9.954V13.23L101.231 13.258ZM116.615 10.164C117.138 10.2853 117.539 10.4953 117.819 10.794C118.109 11.0927 118.253 11.4567 118.253 11.886C118.253 12.3153 118.104 12.698 117.805 13.034C117.516 13.37 117.119 13.6313 116.615 13.818C116.111 13.9953 115.556 14.084 114.949 14.084C114.417 14.084 113.895 14.0093 113.381 13.86C112.868 13.7013 112.42 13.4727 112.037 13.174L112.373 12.432C112.709 12.684 113.101 12.88 113.549 13.02C113.997 13.16 114.45 13.23 114.907 13.23C115.589 13.23 116.144 13.104 116.573 12.852C117.012 12.5907 117.231 12.2407 117.231 11.802C117.231 11.41 117.054 11.1067 116.699 10.892C116.345 10.668 115.859 10.556 115.243 10.556H113.983V9.828H115.187C115.738 9.828 116.181 9.72533 116.517 9.52C116.853 9.30533 117.021 9.02067 117.021 8.666C117.021 8.274 116.83 7.966 116.447 7.742C116.074 7.518 115.584 7.406 114.977 7.406C114.184 7.406 113.4 7.60667 112.625 8.008L112.345 7.238C113.223 6.78067 114.133 6.552 115.075 6.552C115.635 6.552 116.139 6.636 116.587 6.804C117.045 6.96267 117.399 7.19133 117.651 7.49C117.913 7.78867 118.043 8.134 118.043 8.526C118.043 8.89933 117.913 9.23067 117.651 9.52C117.399 9.80933 117.054 10.024 116.615 10.164ZM123.044 6.58C124.005 6.58 124.742 6.82267 125.256 7.308C125.769 7.784 126.026 8.49333 126.026 9.436V14H125.074V12.852C124.85 13.2347 124.518 13.5333 124.08 13.748C123.65 13.9627 123.137 14.07 122.54 14.07C121.718 14.07 121.065 13.874 120.58 13.482C120.094 13.09 119.852 12.572 119.852 11.928C119.852 11.3027 120.076 10.7987 120.524 10.416C120.981 10.0333 121.704 9.842 122.694 9.842H125.032V9.394C125.032 8.75933 124.854 8.27867 124.5 7.952C124.145 7.616 123.627 7.448 122.946 7.448C122.479 7.448 122.031 7.52733 121.602 7.686C121.172 7.83533 120.804 8.04533 120.496 8.316L120.048 7.574C120.421 7.25667 120.869 7.014 121.392 6.846C121.914 6.66867 122.465 6.58 123.044 6.58ZM122.694 13.286C123.254 13.286 123.734 13.16 124.136 12.908C124.537 12.6467 124.836 12.2733 125.032 11.788V10.584H122.722C121.462 10.584 120.832 11.0227 120.832 11.9C120.832 12.3293 120.995 12.67 121.322 12.922C121.648 13.1647 122.106 13.286 122.694 13.286ZM131.346 10.724H129.666V14H128.672V6.636H129.666V9.87H131.36L133.95 6.636H135.028L132.13 10.206L135.238 14H134.062L131.346 10.724ZM139.204 6.58C140.165 6.58 140.903 6.82267 141.416 7.308C141.929 7.784 142.186 8.49333 142.186 9.436V14H141.234V12.852C141.01 13.2347 140.679 13.5333 140.24 13.748C139.811 13.9627 139.297 14.07 138.7 14.07C137.879 14.07 137.225 13.874 136.74 13.482C136.255 13.09 136.012 12.572 136.012 11.928C136.012 11.3027 136.236 10.7987 136.684 10.416C137.141 10.0333 137.865 9.842 138.854 9.842H141.192V9.394C141.192 8.75933 141.015 8.27867 140.66 7.952C140.305 7.616 139.787 7.448 139.106 7.448C138.639 7.448 138.191 7.52733 137.762 7.686C137.333 7.83533 136.964 8.04533 136.656 8.316L136.208 7.574C136.581 7.25667 137.029 7.014 137.552 6.846C138.075 6.66867 138.625 6.58 139.204 6.58ZM138.854 13.286C139.414 13.286 139.895 13.16 140.296 12.908C140.697 12.6467 140.996 12.2733 141.192 11.788V10.584H138.882C137.622 10.584 136.992 11.0227 136.992 11.9C136.992 12.3293 137.155 12.67 137.482 12.922C137.809 13.1647 138.266 13.286 138.854 13.286ZM148.266 10.164C148.788 10.2853 149.19 10.4953 149.47 10.794C149.759 11.0927 149.904 11.4567 149.904 11.886C149.904 12.3153 149.754 12.698 149.456 13.034C149.166 13.37 148.77 13.6313 148.266 13.818C147.762 13.9953 147.206 14.084 146.6 14.084C146.068 14.084 145.545 14.0093 145.032 13.86C144.518 13.7013 144.07 13.4727 143.688 13.174L144.024 12.432C144.36 12.684 144.752 12.88 145.2 13.02C145.648 13.16 146.1 13.23 146.558 13.23C147.239 13.23 147.794 13.104 148.224 12.852C148.662 12.5907 148.882 12.2407 148.882 11.802C148.882 11.41 148.704 11.1067 148.35 10.892C147.995 10.668 147.51 10.556 146.894 10.556H145.634V9.828H146.838C147.388 9.828 147.832 9.72533 148.168 9.52C148.504 9.30533 148.672 9.02067 148.672 8.666C148.672 8.274 148.48 7.966 148.098 7.742C147.724 7.518 147.234 7.406 146.628 7.406C145.834 7.406 145.05 7.60667 144.276 8.008L143.996 7.238C144.873 6.78067 145.783 6.552 146.726 6.552C147.286 6.552 147.79 6.636 148.238 6.804C148.695 6.96267 149.05 7.19133 149.302 7.49C149.563 7.78867 149.694 8.134 149.694 8.526C149.694 8.89933 149.563 9.23067 149.302 9.52C149.05 9.80933 148.704 10.024 148.266 10.164ZM154.694 6.58C155.655 6.58 156.393 6.82267 156.906 7.308C157.419 7.784 157.676 8.49333 157.676 9.436V14H156.724V12.852C156.5 13.2347 156.169 13.5333 155.73 13.748C155.301 13.9627 154.787 14.07 154.19 14.07C153.369 14.07 152.715 13.874 152.23 13.482C151.745 13.09 151.502 12.572 151.502 11.928C151.502 11.3027 151.726 10.7987 152.174 10.416C152.631 10.0333 153.355 9.842 154.344 9.842H156.682V9.394C156.682 8.75933 156.505 8.27867 156.15 7.952C155.795 7.616 155.277 7.448 154.596 7.448C154.129 7.448 153.681 7.52733 153.252 7.686C152.823 7.83533 152.454 8.04533 152.146 8.316L151.698 7.574C152.071 7.25667 152.519 7.014 153.042 6.846C153.565 6.66867 154.115 6.58 154.694 6.58ZM154.344 13.286C154.904 13.286 155.385 13.16 155.786 12.908C156.187 12.6467 156.486 12.2733 156.682 11.788V10.584H154.372C153.112 10.584 152.482 11.0227 152.482 11.9C152.482 12.3293 152.645 12.67 152.972 12.922C153.299 13.1647 153.756 13.286 154.344 13.286ZM166.342 6.636V14H165.348V7.518H161.82L161.722 9.338C161.648 10.8687 161.47 12.0447 161.19 12.866C160.91 13.6873 160.411 14.098 159.692 14.098C159.496 14.098 159.258 14.0607 158.978 13.986L159.048 13.132C159.216 13.1693 159.333 13.188 159.398 13.188C159.781 13.188 160.07 13.0107 160.266 12.656C160.462 12.3013 160.593 11.8627 160.658 11.34C160.724 10.8173 160.78 10.1267 160.826 9.268L160.952 6.636H166.342ZM175.912 14.07C175.184 14.07 174.531 13.9113 173.952 13.594C173.383 13.2767 172.935 12.8333 172.608 12.264C172.281 11.6853 172.118 11.0367 172.118 10.318C172.118 9.59933 172.281 8.95533 172.608 8.386C172.935 7.81667 173.383 7.37333 173.952 7.056C174.531 6.73867 175.184 6.58 175.912 6.58C176.547 6.58 177.111 6.706 177.606 6.958C178.11 7.20067 178.507 7.56 178.796 8.036L178.054 8.54C177.811 8.176 177.503 7.90533 177.13 7.728C176.757 7.54133 176.351 7.448 175.912 7.448C175.38 7.448 174.899 7.56933 174.47 7.812C174.05 8.04533 173.719 8.38133 173.476 8.82C173.243 9.25867 173.126 9.758 173.126 10.318C173.126 10.8873 173.243 11.3913 173.476 11.83C173.719 12.2593 174.05 12.5953 174.47 12.838C174.899 13.0713 175.38 13.188 175.912 13.188C176.351 13.188 176.757 13.0993 177.13 12.922C177.503 12.7447 177.811 12.474 178.054 12.11L178.796 12.614C178.507 13.09 178.11 13.454 177.606 13.706C177.102 13.9487 176.537 14.07 175.912 14.07ZM184.602 9.212C185.507 9.212 186.198 9.41733 186.674 9.828C187.15 10.2387 187.388 10.8173 187.388 11.564C187.388 12.3573 187.131 12.964 186.618 13.384C186.105 13.7947 185.367 14 184.406 14H181.494V7.518H179.198V6.636H182.488V9.212H184.602ZM184.392 13.23C185.045 13.23 185.54 13.09 185.876 12.81C186.212 12.53 186.38 12.1147 186.38 11.564C186.38 10.5 185.717 9.968 184.392 9.968H182.488V13.23H184.392ZM195.719 10.626H189.559C189.615 11.3913 189.909 12.012 190.441 12.488C190.973 12.9547 191.645 13.188 192.457 13.188C192.915 13.188 193.335 13.1087 193.717 12.95C194.1 12.782 194.431 12.5393 194.711 12.222L195.271 12.866C194.945 13.258 194.534 13.5567 194.039 13.762C193.554 13.9673 193.017 14.07 192.429 14.07C191.673 14.07 191.001 13.9113 190.413 13.594C189.835 13.2673 189.382 12.8193 189.055 12.25C188.729 11.6807 188.565 11.0367 188.565 10.318C188.565 9.59933 188.719 8.95533 189.027 8.386C189.345 7.81667 189.774 7.37333 190.315 7.056C190.866 6.73867 191.482 6.58 192.163 6.58C192.845 6.58 193.456 6.73867 193.997 7.056C194.539 7.37333 194.963 7.81667 195.271 8.386C195.579 8.946 195.733 9.59 195.733 10.318L195.719 10.626ZM192.163 7.434C191.454 7.434 190.857 7.66267 190.371 8.12C189.895 8.568 189.625 9.156 189.559 9.884H194.781C194.716 9.156 194.441 8.568 193.955 8.12C193.479 7.66267 192.882 7.434 192.163 7.434ZM206.166 6.636V14H205.256V8.176L202.274 13.104H201.826L198.844 8.162V14H197.934V6.636H198.942L202.064 11.942L205.242 6.636H206.166ZM211.668 10.724H209.988V14H208.994V6.636H209.988V9.87H211.682L214.272 6.636H215.35L212.452 10.206L215.56 14H214.384L211.668 10.724ZM222.963 6.636L219.281 14.882C218.982 15.5727 218.637 16.0627 218.245 16.352C217.853 16.6413 217.382 16.786 216.831 16.786C216.476 16.786 216.145 16.73 215.837 16.618C215.529 16.506 215.263 16.338 215.039 16.114L215.501 15.372C215.874 15.7453 216.322 15.932 216.845 15.932C217.181 15.932 217.466 15.8387 217.699 15.652C217.942 15.4653 218.166 15.148 218.371 14.7L218.693 13.986L215.403 6.636H216.439L219.211 12.894L221.983 6.636H222.963ZM231.256 14.07C230.528 14.07 229.874 13.9113 229.296 13.594C228.726 13.2767 228.278 12.8333 227.952 12.264C227.625 11.6853 227.462 11.0367 227.462 10.318C227.462 9.59933 227.625 8.95533 227.952 8.386C228.278 7.81667 228.726 7.37333 229.296 7.056C229.874 6.73867 230.528 6.58 231.256 6.58C231.89 6.58 232.455 6.706 232.95 6.958C233.454 7.20067 233.85 7.56 234.14 8.036L233.398 8.54C233.155 8.176 232.847 7.90533 232.474 7.728C232.1 7.54133 231.694 7.448 231.256 7.448C230.724 7.448 230.243 7.56933 229.814 7.812C229.394 8.04533 229.062 8.38133 228.82 8.82C228.586 9.25867 228.47 9.758 228.47 10.318C228.47 10.8873 228.586 11.3913 228.82 11.83C229.062 12.2593 229.394 12.5953 229.814 12.838C230.243 13.0713 230.724 13.188 231.256 13.188C231.694 13.188 232.1 13.0993 232.474 12.922C232.847 12.7447 233.155 12.474 233.398 12.11L234.14 12.614C233.85 13.09 233.454 13.454 232.95 13.706C232.446 13.9487 231.881 14.07 231.256 14.07ZM236.064 6.636H237.058V9.898H241.692V6.636H242.686V14H241.692V10.752H237.058V14H236.064V6.636ZM248.55 14.07C247.84 14.07 247.201 13.9113 246.632 13.594C246.062 13.2673 245.614 12.8193 245.288 12.25C244.961 11.6807 244.798 11.0367 244.798 10.318C244.798 9.59933 244.961 8.95533 245.288 8.386C245.614 7.81667 246.062 7.37333 246.632 7.056C247.201 6.73867 247.84 6.58 248.55 6.58C249.259 6.58 249.898 6.73867 250.468 7.056C251.037 7.37333 251.48 7.81667 251.798 8.386C252.124 8.95533 252.288 9.59933 252.288 10.318C252.288 11.0367 252.124 11.6807 251.798 12.25C251.48 12.8193 251.037 13.2673 250.468 13.594C249.898 13.9113 249.259 14.07 248.55 14.07ZM248.55 13.188C249.072 13.188 249.539 13.0713 249.95 12.838C250.37 12.5953 250.696 12.2547 250.93 11.816C251.163 11.3773 251.28 10.878 251.28 10.318C251.28 9.758 251.163 9.25867 250.93 8.82C250.696 8.38133 250.37 8.04533 249.95 7.812C249.539 7.56933 249.072 7.448 248.55 7.448C248.027 7.448 247.556 7.56933 247.136 7.812C246.725 8.04533 246.398 8.38133 246.156 8.82C245.922 9.25867 245.806 9.758 245.806 10.318C245.806 10.878 245.922 11.3773 246.156 11.816C246.398 12.2547 246.725 12.5953 247.136 12.838C247.556 13.0713 248.027 13.188 248.55 13.188ZM259.102 10.192C260.101 10.4253 260.6 11.0273 260.6 11.998C260.6 12.642 260.362 13.1367 259.886 13.482C259.41 13.8273 258.701 14 257.758 14H254.412V6.636H257.66C258.5 6.636 259.158 6.79933 259.634 7.126C260.11 7.45267 260.348 7.91933 260.348 8.526C260.348 8.92733 260.236 9.27267 260.012 9.562C259.797 9.842 259.494 10.052 259.102 10.192ZM255.378 9.912H257.59C258.159 9.912 258.593 9.80467 258.892 9.59C259.2 9.37533 259.354 9.06267 259.354 8.652C259.354 8.24133 259.2 7.93333 258.892 7.728C258.593 7.52267 258.159 7.42 257.59 7.42H255.378V9.912ZM257.716 13.216C258.351 13.216 258.827 13.1133 259.144 12.908C259.461 12.7027 259.62 12.3807 259.62 11.942C259.62 11.5033 259.475 11.1813 259.186 10.976C258.897 10.7613 258.439 10.654 257.814 10.654H255.378V13.216H257.716ZM265.464 6.58C266.425 6.58 267.162 6.82267 267.676 7.308C268.189 7.784 268.446 8.49333 268.446 9.436V14H267.494V12.852C267.27 13.2347 266.938 13.5333 266.5 13.748C266.07 13.9627 265.557 14.07 264.96 14.07C264.138 14.07 263.485 13.874 263 13.482C262.514 13.09 262.272 12.572 262.272 11.928C262.272 11.3027 262.496 10.7987 262.944 10.416C263.401 10.0333 264.124 9.842 265.114 9.842H267.452V9.394C267.452 8.75933 267.274 8.27867 266.92 7.952C266.565 7.616 266.047 7.448 265.366 7.448C264.899 7.448 264.451 7.52733 264.022 7.686C263.592 7.83533 263.224 8.04533 262.916 8.316L262.468 7.574C262.841 7.25667 263.289 7.014 263.812 6.846C264.334 6.66867 264.885 6.58 265.464 6.58ZM265.114 13.286C265.674 13.286 266.154 13.16 266.556 12.908C266.957 12.6467 267.256 12.2733 267.452 11.788V10.584H265.142C263.882 10.584 263.252 11.0227 263.252 11.9C263.252 12.3293 263.415 12.67 263.742 12.922C264.068 13.1647 264.526 13.286 265.114 13.286ZM270.91 4.2H272.086L271.876 11.06H271.106L270.91 4.2ZM271.498 14.07C271.292 14.07 271.115 14 270.966 13.86C270.826 13.7107 270.756 13.538 270.756 13.342C270.756 13.1367 270.826 12.9687 270.966 12.838C271.106 12.698 271.283 12.628 271.498 12.628C271.703 12.628 271.876 12.698 272.016 12.838C272.156 12.9687 272.226 13.1367 272.226 13.342C272.226 13.538 272.156 13.7107 272.016 13.86C271.876 14 271.703 14.07 271.498 14.07Z" fill="#B3B3B3"/>
<path d="M1 7.5L6.6 13.5L16 2" stroke="#6AAD4A" stroke-width="2.5"/>
</svg>
