<svg width="84" height="16" fill="none" xmlns="http://www.w3.org/2000/svg"><path d="M0 0v15.335h1.989V8.312H9.86v7.023h1.988V0H9.861v6.593H1.989V0H0zm15.109 0v15.335h10.384v-1.719h-8.395V8.312h7.767V6.593h-7.767V1.718h8.332V0H15.109zm12.798 0v15.335h9.902v-1.719h-7.913V0h-1.989zm15.478 9.063L49.101 0H46.84l-4.376 7.302L37.984 0h-2.366l5.779 9.063v6.271h1.988v-6.27zM50.785 0v15.335h1.989V8.312h6.866V6.593h-6.867V1.718h7.83V0h-9.818zm12.021 0v15.335h9.903v-1.719h-7.914V0h-1.989zm15.479 9.063L84 0h-2.261l-4.376 7.302L72.883 0h-2.365l5.778 9.063v6.271h1.989v-6.27z" fill="#000"/></svg>