<svg width="40" height="19" fill="none" xmlns="http://www.w3.org/2000/svg"><path fill-rule="evenodd" clip-rule="evenodd" d="M33.956 12.784l-4.73-4.526A.695.695 0 0129 7.737a.719.719 0 01.226-.521.807.807 0 01.547-.216c.202 0 .396.077.547.216l4.18 4.005 4.186-4.005A.799.799 0 0139.23 7a.8.8 0 01.544.216.696.696 0 01.226.521.72.72 0 01-.226.522l-4.724 4.525a.81.81 0 01-.55.216.786.786 0 01-.544-.216z" fill="#C7C7C7"/><path d="M8.88 15l-2.4-3.375c-.27.03-.55.045-.84.045H2.82V15H1.71V4.5h3.93c1.34 0 2.39.32 3.15.96.76.64 1.14 1.52 1.14 2.64 0 .82-.21 1.515-.63 2.085-.41.56-1 .965-1.77 1.215l2.565 3.6H8.88zm-3.27-4.275c1.04 0 1.835-.23 2.385-.69.55-.46.825-1.105.825-1.935 0-.85-.275-1.5-.825-1.95-.55-.46-1.345-.69-2.385-.69H2.82v5.265h2.79zm11.17 4.365c-1.36 0-2.42-.39-3.18-1.17-.76-.78-1.14-1.915-1.14-3.405V4.5h1.11v5.97c0 1.22.275 2.13.825 2.73.55.6 1.345.9 2.385.9 1.05 0 1.85-.3 2.4-.9.55-.6.825-1.51.825-2.73V4.5h1.08v6.015c0 1.49-.38 2.625-1.14 3.405-.75.78-1.805 1.17-3.165 1.17z" fill="#37373F"/></svg>