<svg width="265" height="41" fill="none" xmlns="http://www.w3.org/2000/svg"><path d="M50.534 4.9h6.656v.819h-5.707v2.977h2.977c1.075 0 1.89.221 2.444.663.563.442.845 1.083.845 1.924 0 .875-.303 1.547-.91 2.015-.598.468-1.46.702-2.587.702h-3.718V4.9zm3.705 8.333c.84 0 1.473-.16 1.898-.481.433-.32.65-.797.65-1.43 0-.624-.212-1.088-.637-1.391-.416-.312-1.053-.468-1.911-.468h-2.756v3.77h2.756zm8.34.832a3.595 3.595 0 01-1.78-.442 3.317 3.317 0 01-1.249-1.248c-.303-.529-.455-1.127-.455-1.794s.152-1.265.455-1.794c.304-.529.72-.94 1.248-1.235a3.595 3.595 0 011.781-.442c.659 0 1.253.147 1.781.442.529.295.94.706 1.235 1.235.304.529.455 1.127.455 1.794s-.151 1.265-.455 1.794a3.224 3.224 0 01-1.235 1.248 3.595 3.595 0 01-1.78.442zm0-.819c.486 0 .919-.108 1.3-.325.39-.225.694-.542.91-.949.217-.407.325-.871.325-1.391s-.108-.984-.325-1.391a2.257 2.257 0 00-.91-.936 2.507 2.507 0 00-1.3-.338 2.58 2.58 0 00-1.313.338 2.366 2.366 0 00-.91.936 2.916 2.916 0 00-.325 1.391c0 .52.109.984.325 1.391.226.407.529.724.91.949.39.217.828.325 1.313.325zm10.996-6.084V14h-.923V7.981h-3.276l-.091 1.69c-.07 1.421-.234 2.513-.494 3.276-.26.763-.724 1.144-1.391 1.144-.182 0-.403-.035-.663-.104l.065-.793c.156.035.264.052.325.052.355 0 .624-.165.806-.494.182-.33.303-.737.364-1.222.06-.485.112-1.127.156-1.924l.117-2.444h5.005zm8.604 3.705h-5.72c.052.71.325 1.287.819 1.729.494.433 1.118.65 1.872.65.424 0 .814-.074 1.17-.221.355-.156.663-.381.923-.676l.52.598a2.918 2.918 0 01-1.144.832c-.45.19-.95.286-1.495.286-.702 0-1.326-.147-1.872-.442a3.292 3.292 0 01-1.261-1.248c-.304-.529-.455-1.127-.455-1.794s.143-1.265.429-1.794c.294-.529.693-.94 1.196-1.235a3.375 3.375 0 011.716-.442c.632 0 1.2.147 1.703.442.502.295.897.706 1.183 1.235.286.52.429 1.118.429 1.794l-.013.286zm-3.302-2.964c-.659 0-1.214.212-1.664.637-.442.416-.694.962-.754 1.638h4.849c-.06-.676-.317-1.222-.767-1.638-.442-.425-.997-.637-1.664-.637zm11.338 2.964h-5.72c.052.71.325 1.287.819 1.729.494.433 1.118.65 1.872.65.424 0 .814-.074 1.17-.221.355-.156.663-.381.923-.676l.52.598a2.92 2.92 0 01-1.144.832c-.45.19-.95.286-1.495.286-.702 0-1.326-.147-1.872-.442a3.29 3.29 0 01-1.261-1.248c-.303-.529-.455-1.127-.455-1.794s.143-1.265.429-1.794c.294-.529.693-.94 1.196-1.235a3.374 3.374 0 011.716-.442c.633 0 1.2.147 1.703.442.502.295.897.706 1.183 1.235.286.52.429 1.118.429 1.794l-.013.286zm-3.302-2.964c-.659 0-1.213.212-1.664.637-.442.416-.694.962-.754 1.638h4.849c-.06-.676-.316-1.222-.767-1.638-.442-.425-.997-.637-1.664-.637zM97.805 4.9V14h-1.287V6.031h-2.054V4.9h3.341zm4.591 3.627c1.3 0 2.253.247 2.86.741.615.485.923 1.153.923 2.002 0 .537-.13 1.023-.39 1.456-.251.425-.637.763-1.157 1.014-.511.243-1.144.364-1.898.364a6.083 6.083 0 01-1.859-.286c-.598-.2-1.092-.472-1.482-.819l.598-1.027c.312.295.711.533 1.196.715.485.173.997.26 1.534.26.685 0 1.213-.143 1.586-.429.381-.295.572-.693.572-1.196 0-.546-.208-.958-.624-1.235-.416-.286-1.127-.429-2.132-.429h-2.067l.481-4.758h5.135v1.131h-4.043l-.247 2.496h1.014zm8.583 5.577c-.72 0-1.361-.182-1.924-.546-.555-.373-.993-.91-1.313-1.612-.321-.702-.481-1.534-.481-2.496s.16-1.794.481-2.496c.32-.702.758-1.235 1.313-1.599.563-.373 1.204-.559 1.924-.559.71 0 1.343.186 1.898.559.563.364 1.005.897 1.326 1.599.32.702.481 1.534.481 2.496s-.161 1.794-.481 2.496c-.321.702-.763 1.24-1.326 1.612-.555.364-1.188.546-1.898.546zm0-1.157c.728 0 1.308-.299 1.742-.897.442-.598.663-1.465.663-2.6s-.221-2.002-.663-2.6c-.434-.598-1.014-.897-1.742-.897-.737 0-1.326.299-1.768.897-.434.598-.65 1.465-.65 2.6s.216 2.002.65 2.6c.442.598 1.031.897 1.768.897zm11.865 1.118a3.595 3.595 0 01-1.781-.442 3.313 3.313 0 01-1.248-1.248c-.303-.529-.455-1.127-.455-1.794s.152-1.265.455-1.794a3.22 3.22 0 011.248-1.235 3.595 3.595 0 011.781-.442c.659 0 1.252.147 1.781.442.529.295.94.706 1.235 1.235.303.529.455 1.127.455 1.794s-.152 1.265-.455 1.794a3.224 3.224 0 01-1.235 1.248 3.595 3.595 0 01-1.781.442zm0-.819c.485 0 .919-.108 1.3-.325.39-.225.693-.542.91-.949.217-.407.325-.871.325-1.391s-.108-.984-.325-1.391a2.259 2.259 0 00-.91-.936 2.507 2.507 0 00-1.3-.338 2.58 2.58 0 00-1.313.338 2.366 2.366 0 00-.91.936 2.912 2.912 0 00-.325 1.391c0 .52.108.984.325 1.391.225.407.529.724.91.949.39.217.828.325 1.313.325zm10-5.265h-2.587V14h-.923V7.981h-2.587v-.819h6.097v.819zm4.472 2.457c.485.113.858.308 1.118.585.268.277.403.615.403 1.014s-.139.754-.416 1.066c-.269.312-.637.555-1.105.728a4.634 4.634 0 01-1.547.247c-.494 0-.98-.07-1.456-.208a3.85 3.85 0 01-1.248-.637l.312-.689c.312.234.676.416 1.092.546.416.13.836.195 1.261.195.632 0 1.148-.117 1.547-.351.407-.243.611-.568.611-.975 0-.364-.165-.646-.494-.845-.33-.208-.78-.312-1.352-.312h-1.17v-.676h1.118c.511 0 .923-.095 1.235-.286.312-.2.468-.464.468-.793 0-.364-.178-.65-.533-.858-.347-.208-.802-.312-1.365-.312-.737 0-1.465.186-2.184.559l-.26-.715a5.413 5.413 0 012.535-.637c.52 0 .988.078 1.404.234.424.147.754.36.988.637.242.277.364.598.364.962 0 .347-.122.654-.364.923-.234.269-.555.468-.962.598zm6.489-.858c.858.009 1.512.2 1.963.572.451.373.676.91.676 1.612 0 .728-.243 1.287-.728 1.677-.485.39-1.179.58-2.08.572L140.932 14V7.162h.923v2.392l1.95.026zm3.783-2.418h.923V14h-.923V7.162zm-4.004 6.149c.633.009 1.109-.117 1.43-.377.329-.269.494-.659.494-1.17 0-.503-.16-.875-.481-1.118-.321-.243-.802-.368-1.443-.377l-1.729-.026v3.042l1.729.026zm11.91-2.847c.928.217 1.391.776 1.391 1.677 0 .598-.221 1.057-.663 1.378-.442.32-1.1.481-1.976.481h-3.107V7.162h3.016c.78 0 1.391.152 1.833.455.442.303.663.737.663 1.3 0 .373-.104.693-.312.962-.199.26-.481.455-.845.585zm-3.458-.26h2.054c.529 0 .932-.1 1.209-.299.286-.2.429-.49.429-.871s-.143-.667-.429-.858c-.277-.19-.68-.286-1.209-.286h-2.054v2.314zm2.171 3.068c.59 0 1.032-.095 1.326-.286.295-.19.442-.49.442-.897 0-.407-.134-.706-.403-.897-.268-.2-.693-.299-1.274-.299h-2.262v2.379h2.171zm7.662.793a3.598 3.598 0 01-1.781-.442 3.327 3.327 0 01-1.248-1.248c-.303-.529-.455-1.127-.455-1.794s.152-1.265.455-1.794c.304-.529.72-.94 1.248-1.235a3.598 3.598 0 011.781-.442c.659 0 1.253.147 1.781.442.529.295.941.706 1.235 1.235.304.529.455 1.127.455 1.794s-.151 1.265-.455 1.794a3.217 3.217 0 01-1.235 1.248 3.592 3.592 0 01-1.781.442zm0-.819c.486 0 .919-.108 1.3-.325.39-.225.694-.542.91-.949.217-.407.325-.871.325-1.391s-.108-.984-.325-1.391a2.253 2.253 0 00-.91-.936 2.504 2.504 0 00-1.3-.338 2.58 2.58 0 00-1.313.338 2.373 2.373 0 00-.91.936 2.924 2.924 0 00-.325 1.391c0 .52.109.984.325 1.391.226.407.529.724.91.949.39.217.828.325 1.313.325zm9.799-2.782c.927.217 1.391.776 1.391 1.677 0 .598-.221 1.057-.663 1.378-.442.32-1.101.481-1.976.481h-3.107V7.162h3.016c.78 0 1.391.152 1.833.455.442.303.663.737.663 1.3 0 .373-.104.693-.312.962-.199.26-.481.455-.845.585zm-3.458-.26h2.054c.529 0 .932-.1 1.209-.299.286-.2.429-.49.429-.871s-.143-.667-.429-.858c-.277-.19-.68-.286-1.209-.286h-2.054v2.314zm2.171 3.068c.589 0 1.031-.095 1.326-.286.295-.19.442-.49.442-.897 0-.407-.134-.706-.403-.897-.269-.2-.693-.299-1.274-.299h-2.262v2.379h2.171zm11.104.793c-.676 0-1.283-.147-1.82-.442a3.22 3.22 0 01-1.248-1.235 3.604 3.604 0 01-.455-1.807c0-.667.151-1.265.455-1.794a3.22 3.22 0 011.248-1.235c.537-.295 1.144-.442 1.82-.442.589 0 1.113.117 1.573.351.468.225.836.559 1.105 1.001l-.689.468a2.115 2.115 0 00-.858-.754 2.495 2.495 0 00-1.131-.26c-.494 0-.941.113-1.339.338-.39.217-.698.529-.923.936a2.912 2.912 0 00-.325 1.391c0 .529.108.997.325 1.404.225.399.533.71.923.936.398.217.845.325 1.339.325a2.6 2.6 0 001.131-.247c.346-.165.632-.416.858-.754l.689.468c-.269.442-.637.78-1.105 1.014a3.582 3.582 0 01-1.573.338zm10.688 0a3.595 3.595 0 01-1.781-.442 3.313 3.313 0 01-1.248-1.248c-.303-.529-.455-1.127-.455-1.794s.152-1.265.455-1.794a3.22 3.22 0 011.248-1.235 3.595 3.595 0 011.781-.442c.659 0 1.252.147 1.781.442.529.295.94.706 1.235 1.235.303.529.455 1.127.455 1.794s-.152 1.265-.455 1.794a3.224 3.224 0 01-1.235 1.248 3.595 3.595 0 01-1.781.442zm0-.819c.485 0 .919-.108 1.3-.325.39-.225.693-.542.91-.949.217-.407.325-.871.325-1.391s-.108-.984-.325-1.391a2.259 2.259 0 00-.91-.936 2.507 2.507 0 00-1.3-.338 2.58 2.58 0 00-1.313.338 2.366 2.366 0 00-.91.936 2.912 2.912 0 00-.325 1.391c0 .52.108.984.325 1.391.225.407.529.724.91.949.39.217.828.325 1.313.325zm12.568-.052v2.522h-.871V14h-6.253V7.162h.923v6.032h4.173V7.162h.923v6.032h1.105zm7.742-2.327h-5.72c.052.71.325 1.287.819 1.729.494.433 1.118.65 1.872.65a3.03 3.03 0 001.17-.221c.356-.156.663-.381.923-.676l.52.598a2.912 2.912 0 01-1.144.832c-.45.19-.949.286-1.495.286-.702 0-1.326-.147-1.872-.442a3.298 3.298 0 01-1.261-1.248c-.303-.529-.455-1.127-.455-1.794s.143-1.265.429-1.794c.295-.529.694-.94 1.196-1.235a3.378 3.378 0 011.716-.442c.633 0 1.201.147 1.703.442a3.12 3.12 0 011.183 1.235c.286.52.429 1.118.429 1.794l-.013.286zm-3.302-2.964c-.658 0-1.213.212-1.664.637-.442.416-.693.962-.754 1.638h4.849c-.06-.676-.316-1.222-.767-1.638-.442-.425-.996-.637-1.664-.637zm5.359-.741h.923v3.029h4.303V7.162h.923V14h-.923v-3.016h-4.303V14h-.923V7.162zm11.255 3.796h-1.56V14h-.923V7.162h.923v3.003h1.573l2.405-3.003h1.001l-2.691 3.315L229.409 14h-1.092l-2.522-3.042zm7.651 3.107a3.592 3.592 0 01-1.781-.442 3.313 3.313 0 01-1.248-1.248c-.304-.529-.455-1.127-.455-1.794s.151-1.265.455-1.794a3.22 3.22 0 011.248-1.235 3.592 3.592 0 011.781-.442c.658 0 1.252.147 1.781.442.528.295.94.706 1.235 1.235.303.529.455 1.127.455 1.794s-.152 1.265-.455 1.794a3.23 3.23 0 01-1.235 1.248 3.598 3.598 0 01-1.781.442zm0-.819c.485 0 .918-.108 1.3-.325.39-.225.693-.542.91-.949.216-.407.325-.871.325-1.391s-.109-.984-.325-1.391a2.259 2.259 0 00-.91-.936 2.51 2.51 0 00-1.3-.338c-.486 0-.923.113-1.313.338a2.36 2.36 0 00-.91.936 2.912 2.912 0 00-.325 1.391c0 .52.108.984.325 1.391.225.407.528.724.91.949.39.217.827.325 1.313.325zm5.443-6.084h.923v5.434l4.563-5.434h.819V14h-.923V8.566L239.721 14h-.832V7.162zm3.107-.988c-.589 0-1.057-.147-1.404-.442-.346-.295-.524-.71-.533-1.248h.663c.009.338.13.611.364.819.234.2.538.299.91.299.373 0 .676-.1.91-.299.243-.208.369-.481.377-.819h.663c-.008.537-.19.953-.546 1.248-.346.295-.814.442-1.404.442z" fill="#37373F"/><path d="M65.341 29.501l-4.705-.442a.813.813 0 01-.674-.496l-1.685-4.06c-.27-.67-1.227-.67-1.496 0l-1.672 4.06a.796.796 0 01-.674.496l-4.705.442c-.701.067-.984.938-.458 1.407l3.545 3.096c.23.2.324.496.256.79l-1.065 4.343c-.161.683.58 1.246 1.2.884l3.923-2.292a.82.82 0 01.823 0l3.923 2.292a.81.81 0 001.2-.885l-1.052-4.341a.799.799 0 01.256-.791l3.546-3.096c.512-.469.215-1.34-.486-1.407zm23.729 0l-4.705-.442a.813.813 0 01-.674-.496l-1.685-4.06c-.27-.67-1.227-.67-1.496 0l-1.672 4.06a.796.796 0 01-.674.496l-4.705.442c-.701.067-.984.938-.459 1.407l3.546 3.096c.23.2.323.496.256.79l-1.065 4.343c-.162.683.58 1.246 1.2.884l3.923-2.292a.82.82 0 01.822 0l3.924 2.292a.81.81 0 001.2-.885l-1.052-4.341a.798.798 0 01.256-.791l3.545-3.096c.513-.469.216-1.34-.485-1.407zm23.729 0l-4.705-.442a.812.812 0 01-.674-.496l-1.685-4.06c-.27-.67-1.227-.67-1.497 0l-1.671 4.06a.797.797 0 01-.674.496l-4.706.442c-.7.067-.984.938-.458 1.407l3.546 3.096a.8.8 0 01.256.79l-1.065 4.343c-.162.683.58 1.246 1.2.884l3.923-2.292a.82.82 0 01.822 0l3.923 2.292a.81.81 0 001.2-.885l-1.051-4.341a.796.796 0 01.256-.791l3.545-3.096c.513-.469.216-1.34-.485-1.407zm23.729 0l-4.705-.442a.812.812 0 01-.674-.496l-1.685-4.06c-.27-.67-1.227-.67-1.497 0l-1.671 4.06a.797.797 0 01-.674.496l-4.705.442a.807.807 0 00-.459 1.407l3.546 3.096a.8.8 0 01.256.79l-1.065 4.343c-.162.683.58 1.246 1.2.884l3.923-2.292a.82.82 0 01.822 0l3.923 2.292a.81.81 0 001.2-.885l-1.051-4.341a.796.796 0 01.256-.791l3.545-3.096c.513-.469.216-1.34-.485-1.407zm23.729 0l-4.705-.442a.812.812 0 01-.674-.496l-1.686-4.06c-.269-.67-1.226-.67-1.496 0l-1.672 4.06a.795.795 0 01-.674.496l-4.705.442c-.701.067-.984.938-.458 1.407l3.546 3.096a.8.8 0 01.256.79l-1.065 4.343c-.162.683.579 1.246 1.199.884l3.924-2.292a.82.82 0 01.822 0l3.923 2.292a.81.81 0 001.2-.885l-1.052-4.341a.8.8 0 01.256-.791l3.546-3.096c.512-.469.216-1.34-.485-1.407z" fill="#FC9B09"/><path d="M31.62 16.484h-5.613v-.775a.843.843 0 00-.843-.843H9.836a.843.843 0 00-.843.843v.775H3.38a.843.843 0 00-.843.843v3.818c0 1.044.406 2.025 1.145 2.763a3.882 3.882 0 002.763 1.145h2.764c.807 3.509 3.791 6.196 7.448 6.557v3.795H14.4a2.368 2.368 0 00-2.365 2.365v1.387c0 .465.377.843.843.843h9.246a.843.843 0 00.843-.843V37.77a2.368 2.368 0 00-2.365-2.366h-2.258V31.61c3.657-.361 6.641-3.048 7.448-6.557h2.764a3.912 3.912 0 003.908-3.908v-3.818a.843.843 0 00-.843-.843zM21.28 37.77v.544h-7.56v-.544a.68.68 0 01.68-.678h6.2a.68.68 0 01.679.678zM8.994 23.367h-2.55a2.207 2.207 0 01-1.57-.651 2.207 2.207 0 01-.651-1.571V18.17h4.771v5.197zm15.327-.222a6.829 6.829 0 01-6.821 6.82 6.829 6.829 0 01-6.82-6.82v-6.593h13.64v6.593zm1.685-4.975h4.771v2.975a2.224 2.224 0 01-2.222 2.222h-2.55V18.17z" fill="#37373F"/><path d="M13.924 8.605l-.632 3.339a.843.843 0 001.233.896l2.98-1.633 2.979 1.633a.843.843 0 001.234-.896l-.633-3.339 2.474-2.328a.843.843 0 00-.471-1.45l-3.37-.43-1.451-3.073a.843.843 0 00-1.525 0l-1.45 3.073-3.37.43a.843.843 0 00-.472 1.45l2.474 2.328zm2.04-2.594a.843.843 0 00.655-.477l.886-1.875.885 1.875c.123.26.37.44.655.477l2.058.262-1.51 1.422a.843.843 0 00-.25.77l.385 2.038-1.818-.997a.842.842 0 00-.81 0l-1.82.997.387-2.038a.843.843 0 00-.25-.77l-1.51-1.422 2.057-.262zM34.957 8.41a.843.843 0 00-.695-.575l-2.43-.31-1.046-2.216a.843.843 0 00-1.525 0l-1.046 2.215-2.43.31a.843.843 0 00-.471 1.45l1.784 1.68-.456 2.407a.843.843 0 001.233.896l2.149-1.177 2.148 1.177a.843.843 0 001.234-.896l-.456-2.407 1.784-1.68a.844.844 0 00.223-.874zm-3.5 1.643a.843.843 0 00-.25.77l.21 1.107-.988-.54a.842.842 0 00-.81 0l-.988.54.21-1.106a.843.843 0 00-.25-.771l-.82-.772 1.116-.142a.843.843 0 00.656-.477l.48-1.018.481 1.018c.123.26.37.44.656.477l1.117.142-.82.772zM4.975 13.09l2.148 1.177a.843.843 0 001.234-.896l-.456-2.407 1.784-1.68a.843.843 0 00-.471-1.45l-2.43-.31L5.736 5.31a.843.843 0 00-1.525 0L3.167 7.524l-2.43.31a.843.843 0 00-.472 1.45l1.784 1.68-.456 2.407a.843.843 0 001.234.896l2.148-1.177zM3.838 9.139a.843.843 0 00.656-.477l.48-1.018.482 1.018c.122.26.37.44.655.477l1.118.142-.82.772a.843.843 0 00-.25.77l.209 1.107-.988-.54a.843.843 0 00-.81 0l-.988.54.21-1.106a.843.843 0 00-.25-.771l-.82-.772 1.116-.142z" fill="#FC9B09"/></svg>