<svg width="290" height="22" fill="none" xmlns="http://www.w3.org/2000/svg"><path d="M26.936 14.084c-.97 0-1.848-.215-2.632-.644a4.795 4.795 0 01-1.834-1.778c-.439-.765-.658-1.62-.658-2.562 0-.943.22-1.792.658-2.548a4.738 4.738 0 011.848-1.792c.784-.43 1.661-.644 2.632-.644.728 0 1.4.121 2.016.364a4.178 4.178 0 011.568 1.064l-.658.658c-.765-.775-1.731-1.162-2.898-1.162-.775 0-1.48.177-2.114.532a3.938 3.938 0 00-1.498 1.456c-.355.616-.532 1.307-.532 2.072 0 .765.177 1.456.532 2.072a3.939 3.939 0 001.498 1.456c.635.355 1.34.532 2.114.532 1.176 0 2.142-.392 2.898-1.176l.658.658c-.43.467-.957.826-1.582 1.078a5.452 5.452 0 01-2.016.364zm11.758-7.448l-3.683 8.246c-.298.69-.644 1.18-1.036 1.47-.392.29-.863.434-1.413.434-.355 0-.686-.056-.994-.168a2.154 2.154 0 01-.799-.504l.463-.742c.373.373.82.56 1.343.56.336 0 .621-.093.854-.28.243-.187.467-.504.672-.952l.322-.714-3.29-7.35h1.037l2.771 6.258 2.773-6.258h.98zm8.156 0V14h-.994V7.518h-4.62V14h-.994V6.636h6.608zm9.266 3.99h-6.16c.056.765.35 1.386.882 1.862.532.467 1.204.7 2.016.7.457 0 .877-.08 1.26-.238.382-.168.714-.41.994-.728l.56.644c-.327.392-.738.69-1.232.896a4.092 4.092 0 01-1.61.308c-.756 0-1.428-.159-2.016-.476a3.546 3.546 0 01-1.358-1.344c-.327-.57-.49-1.213-.49-1.932 0-.719.154-1.363.462-1.932a3.462 3.462 0 011.288-1.33 3.634 3.634 0 011.848-.476c.681 0 1.292.159 1.834.476.541.317.966.76 1.274 1.33.308.56.462 1.204.462 1.932l-.014.308zM52.56 7.434c-.71 0-1.307.229-1.792.686-.476.448-.747 1.036-.812 1.764h5.222c-.066-.728-.34-1.316-.826-1.764-.476-.457-1.074-.686-1.792-.686zm9.564-.854c.69 0 1.316.159 1.876.476.56.308.999.747 1.316 1.316.317.57.476 1.218.476 1.946 0 .737-.159 1.39-.476 1.96A3.402 3.402 0 0164 13.608c-.55.308-1.176.462-1.876.462a3.58 3.58 0 01-1.624-.364 3.135 3.135 0 01-1.176-1.092v4.102h-.994V6.636h.952v1.456c.299-.485.69-.859 1.176-1.12a3.511 3.511 0 011.666-.392zm-.07 6.608c.513 0 .98-.117 1.4-.35a2.52 2.52 0 00.98-1.022c.243-.439.364-.938.364-1.498s-.121-1.055-.364-1.484a2.522 2.522 0 00-.98-1.022 2.748 2.748 0 00-1.4-.364 2.77 2.77 0 00-1.414.364c-.41.243-.737.583-.98 1.022-.233.43-.35.924-.35 1.484 0 .56.117 1.06.35 1.498.243.439.57.78.98 1.022.42.233.891.35 1.414.35zM67.746 4.2h1.176l-.21 6.86h-.77l-.196-6.86zm.588 9.87a.751.751 0 01-.532-.21.735.735 0 01-.21-.518.66.66 0 01.21-.504.72.72 0 01.532-.21c.205 0 .378.07.518.21.14.13.21.299.21.504 0 .196-.07.369-.21.518a.704.704 0 01-.518.21zM82.41 4.2V14h-1.022v-2.968h-2.925c-.131 0-.318-.01-.56-.028L75.844 14H74.74l2.225-3.178c-.718-.215-1.269-.593-1.651-1.134-.383-.55-.575-1.223-.575-2.016 0-1.101.346-1.955 1.037-2.562.7-.607 1.642-.91 2.828-.91h3.808zm-6.635 3.444c0 .803.233 1.423.7 1.862.476.43 1.166.644 2.072.644h2.841V5.096h-2.744c-.914 0-1.624.22-2.128.658-.494.43-.742 1.06-.742 1.89zm16.941-.826c.682 0 1.288.154 1.82.462.542.299.962.723 1.26 1.274.3.541.448 1.162.448 1.862 0 .719-.158 1.358-.476 1.918-.308.55-.742.98-1.302 1.288-.56.308-1.204.462-1.932.462-1.222 0-2.17-.43-2.842-1.288-.672-.859-1.008-2.044-1.008-3.556 0-1.577.3-2.786.896-3.626.607-.84 1.55-1.41 2.828-1.708l3.304-.756.168.91-3.108.714c-1.054.233-1.829.649-2.324 1.246-.494.588-.765 1.46-.812 2.618a3.296 3.296 0 011.246-1.33c.532-.327 1.144-.49 1.834-.49zm-.154 6.44a2.68 2.68 0 001.372-.35 2.48 2.48 0 00.952-1.008c.234-.43.35-.915.35-1.456 0-.541-.112-1.017-.336-1.428a2.338 2.338 0 00-.952-.952c-.4-.233-.863-.35-1.386-.35a2.79 2.79 0 00-1.4.35 2.457 2.457 0 00-.952.952c-.224.41-.336.887-.336 1.428a3.1 3.1 0 00.336 1.456c.234.43.556.765.966 1.008.411.233.873.35 1.386.35zm8.907-4.018c.924.01 1.629.215 2.114.616.485.401.728.98.728 1.736 0 .784-.261 1.386-.784 1.806-.523.42-1.269.625-2.24.616L98.375 14V6.636h.994v2.576l2.1.028zm4.074-2.604h.994V14h-.994V6.636zm-4.312 6.622c.681.01 1.195-.126 1.54-.406.355-.29.532-.71.532-1.26 0-.541-.173-.943-.518-1.204-.345-.261-.863-.397-1.554-.406l-1.862-.028v3.276l1.862.028zm15.384-3.094c.523.121.924.331 1.204.63.29.299.434.663.434 1.092 0 .43-.149.812-.448 1.148-.289.336-.686.597-1.19.784a4.99 4.99 0 01-1.666.266 5.59 5.59 0 01-1.568-.224 4.161 4.161 0 01-1.344-.686l.336-.742a3.86 3.86 0 001.176.588c.448.14.901.21 1.358.21.682 0 1.237-.126 1.666-.378.439-.261.658-.611.658-1.05 0-.392-.177-.695-.532-.91-.354-.224-.84-.336-1.456-.336h-1.26v-.728h1.204c.551 0 .994-.103 1.33-.308.336-.215.504-.5.504-.854 0-.392-.191-.7-.574-.924-.373-.224-.863-.336-1.47-.336-.793 0-1.577.2-2.352.602l-.28-.77a5.838 5.838 0 012.73-.686c.56 0 1.064.084 1.512.252.458.159.812.387 1.064.686.262.299.392.644.392 1.036 0 .373-.13.705-.392.994-.252.29-.597.504-1.036.644zm6.429-3.584c.961 0 1.698.243 2.212.728.513.476.77 1.185.77 2.128V14h-.952v-1.148a2.276 2.276 0 01-.994.896c-.43.215-.943.322-1.54.322-.822 0-1.475-.196-1.96-.588-.486-.392-.728-.91-.728-1.554 0-.625.224-1.13.672-1.512.457-.383 1.18-.574 2.17-.574h2.338v-.448c0-.635-.178-1.115-.532-1.442-.355-.336-.873-.504-1.554-.504-.467 0-.915.08-1.344.238-.43.15-.798.36-1.106.63l-.448-.742c.373-.317.821-.56 1.344-.728a5.102 5.102 0 011.652-.266zm-.35 6.706c.56 0 1.04-.126 1.442-.378.401-.261.7-.635.896-1.12v-1.204h-2.31c-1.26 0-1.89.439-1.89 1.316 0 .43.163.77.49 1.022.326.243.784.364 1.372.364zm8.652-2.562h-1.68V14h-.994V6.636h.994V9.87h1.694l2.59-3.234h1.078l-2.898 3.57L135.238 14h-1.176l-2.716-3.276zm7.858-4.144c.961 0 1.699.243 2.212.728.513.476.77 1.185.77 2.128V14h-.952v-1.148a2.27 2.27 0 01-.994.896c-.429.215-.943.322-1.54.322-.821 0-1.475-.196-1.96-.588-.485-.392-.728-.91-.728-1.554 0-.625.224-1.13.672-1.512.457-.383 1.181-.574 2.17-.574h2.338v-.448c0-.635-.177-1.115-.532-1.442-.355-.336-.873-.504-1.554-.504-.467 0-.915.08-1.344.238-.429.15-.798.36-1.106.63l-.448-.742c.373-.317.821-.56 1.344-.728a5.107 5.107 0 011.652-.266zm-.35 6.706c.56 0 1.041-.126 1.442-.378.401-.261.7-.635.896-1.12v-1.204h-2.31c-1.26 0-1.89.439-1.89 1.316 0 .43.163.77.49 1.022.327.243.784.364 1.372.364zm9.412-3.122c.522.121.924.331 1.204.63.289.299.434.663.434 1.092 0 .43-.15.812-.448 1.148-.29.336-.686.597-1.19.784a4.994 4.994 0 01-1.666.266 5.585 5.585 0 01-1.568-.224 4.14 4.14 0 01-1.344-.686l.336-.742a3.86 3.86 0 001.176.588c.448.14.9.21 1.358.21.681 0 1.236-.126 1.666-.378.438-.261.658-.611.658-1.05 0-.392-.178-.695-.532-.91-.355-.224-.84-.336-1.456-.336h-1.26v-.728h1.204c.55 0 .994-.103 1.33-.308.336-.215.504-.5.504-.854 0-.392-.192-.7-.574-.924-.374-.224-.864-.336-1.47-.336-.794 0-1.578.2-2.352.602l-.28-.77a5.832 5.832 0 012.73-.686c.56 0 1.064.084 1.512.252.457.159.812.387 1.064.686.261.299.392.644.392 1.036 0 .373-.131.705-.392.994-.252.29-.598.504-1.036.644zm6.428-3.584c.961 0 1.699.243 2.212.728.513.476.77 1.185.77 2.128V14h-.952v-1.148a2.27 2.27 0 01-.994.896c-.429.215-.943.322-1.54.322-.821 0-1.475-.196-1.96-.588-.485-.392-.728-.91-.728-1.554 0-.625.224-1.13.672-1.512.457-.383 1.181-.574 2.17-.574h2.338v-.448c0-.635-.177-1.115-.532-1.442-.355-.336-.873-.504-1.554-.504-.467 0-.915.08-1.344.238-.429.15-.798.36-1.106.63l-.448-.742c.373-.317.821-.56 1.344-.728a5.107 5.107 0 011.652-.266zm-.35 6.706c.56 0 1.041-.126 1.442-.378.401-.261.7-.635.896-1.12v-1.204h-2.31c-1.26 0-1.89.439-1.89 1.316 0 .43.163.77.49 1.022.327.243.784.364 1.372.364zm11.998-6.65V14h-.994V7.518h-3.528l-.098 1.82c-.074 1.53-.252 2.707-.532 3.528-.28.821-.779 1.232-1.498 1.232-.196 0-.434-.037-.714-.112l.07-.854c.168.037.285.056.35.056.383 0 .672-.177.868-.532.196-.355.327-.793.392-1.316.066-.523.122-1.213.168-2.072l.126-2.632h5.39zm9.57 7.434c-.728 0-1.381-.159-1.96-.476a3.477 3.477 0 01-1.344-1.33 3.885 3.885 0 01-.49-1.946c0-.719.163-1.363.49-1.932a3.477 3.477 0 011.344-1.33c.579-.317 1.232-.476 1.96-.476.635 0 1.199.126 1.694.378a2.77 2.77 0 011.19 1.078l-.742.504a2.273 2.273 0 00-.924-.812 2.683 2.683 0 00-1.218-.28c-.532 0-1.013.121-1.442.364-.42.233-.751.57-.994 1.008-.233.439-.35.938-.35 1.498 0 .57.117 1.073.35 1.512.243.43.574.765.994 1.008.429.233.91.35 1.442.35a2.8 2.8 0 001.218-.266 2.27 2.27 0 00.924-.812l.742.504a2.86 2.86 0 01-1.19 1.092 3.855 3.855 0 01-1.694.364zm8.69-4.858c.905 0 1.596.205 2.072.616.476.41.714.99.714 1.736 0 .793-.257 1.4-.77 1.82-.513.41-1.251.616-2.212.616h-2.912V7.518h-2.296v-.882h3.29v2.576h2.114zm-.21 4.018c.653 0 1.148-.14 1.484-.42.336-.28.504-.695.504-1.246 0-1.064-.663-1.596-1.988-1.596h-1.904v3.262h1.904zm11.327-2.604h-6.16c.056.765.35 1.386.882 1.862.532.467 1.204.7 2.016.7.458 0 .878-.08 1.26-.238.383-.168.714-.41.994-.728l.56.644c-.326.392-.737.69-1.232.896a4.091 4.091 0 01-1.61.308c-.756 0-1.428-.159-2.016-.476a3.552 3.552 0 01-1.358-1.344c-.326-.57-.49-1.213-.49-1.932 0-.719.154-1.363.462-1.932a3.468 3.468 0 011.288-1.33 3.636 3.636 0 011.848-.476c.682 0 1.293.159 1.834.476.542.317.966.76 1.274 1.33.308.56.462 1.204.462 1.932l-.014.308zm-3.556-3.192c-.709 0-1.306.229-1.792.686-.476.448-.746 1.036-.812 1.764h5.222c-.065-.728-.34-1.316-.826-1.764-.476-.457-1.073-.686-1.792-.686zm14.003-.798V14h-.91V8.176l-2.982 4.928h-.448l-2.982-4.942V14h-.91V6.636h1.008l3.122 5.306 3.178-5.306h.924zm5.502 4.088h-1.68V14h-.994V6.636h.994V9.87h1.694l2.59-3.234h1.078l-2.898 3.57L215.56 14h-1.176l-2.716-3.276zm11.295-4.088l-3.682 8.246c-.299.69-.644 1.18-1.036 1.47-.392.29-.863.434-1.414.434-.355 0-.686-.056-.994-.168a2.154 2.154 0 01-.798-.504l.462-.742c.373.373.821.56 1.344.56.336 0 .621-.093.854-.28.243-.187.467-.504.672-.952l.322-.714-3.29-7.35h1.036l2.772 6.258 2.772-6.258h.98zm8.293 7.434c-.728 0-1.382-.159-1.96-.476a3.463 3.463 0 01-1.344-1.33 3.885 3.885 0 01-.49-1.946c0-.719.163-1.363.49-1.932a3.463 3.463 0 011.344-1.33c.578-.317 1.232-.476 1.96-.476.634 0 1.199.126 1.694.378.504.243.9.602 1.19 1.078l-.742.504a2.273 2.273 0 00-.924-.812 2.69 2.69 0 00-1.218-.28c-.532 0-1.013.121-1.442.364-.42.233-.752.57-.994 1.008-.234.439-.35.938-.35 1.498 0 .57.116 1.073.35 1.512.242.43.574.765.994 1.008.429.233.91.35 1.442.35.438 0 .844-.089 1.218-.266a2.27 2.27 0 00.924-.812l.742.504c-.29.476-.686.84-1.19 1.092a3.855 3.855 0 01-1.694.364zm4.808-7.434h.994v3.262h4.634V6.636h.994V14h-.994v-3.248h-4.634V14h-.994V6.636zm12.486 7.434c-.71 0-1.349-.159-1.918-.476a3.564 3.564 0 01-1.344-1.344c-.327-.57-.49-1.213-.49-1.932 0-.719.163-1.363.49-1.932a3.463 3.463 0 011.344-1.33c.569-.317 1.208-.476 1.918-.476.709 0 1.348.159 1.918.476.569.317 1.012.76 1.33 1.33.326.57.49 1.213.49 1.932 0 .719-.164 1.363-.49 1.932a3.48 3.48 0 01-1.33 1.344 3.875 3.875 0 01-1.918.476zm0-.882a2.79 2.79 0 001.4-.35c.42-.243.746-.583.98-1.022.233-.439.35-.938.35-1.498s-.117-1.06-.35-1.498a2.434 2.434 0 00-.98-1.008 2.702 2.702 0 00-1.4-.364 2.77 2.77 0 00-1.414.364c-.411.233-.738.57-.98 1.008-.234.439-.35.938-.35 1.498s.116 1.06.35 1.498c.242.439.569.78.98 1.022.42.233.891.35 1.414.35zm10.552-2.996c.999.233 1.498.835 1.498 1.806 0 .644-.238 1.139-.714 1.484s-1.185.518-2.128.518h-3.346V6.636h3.248c.84 0 1.498.163 1.974.49.476.327.714.793.714 1.4 0 .401-.112.747-.336 1.036-.215.28-.518.49-.91.63zm-3.724-.28h2.212c.569 0 1.003-.107 1.302-.322.308-.215.462-.527.462-.938 0-.41-.154-.719-.462-.924-.299-.205-.733-.308-1.302-.308h-2.212v2.492zm2.338 3.304c.635 0 1.111-.103 1.428-.308.317-.205.476-.527.476-.966 0-.439-.145-.76-.434-.966-.289-.215-.747-.322-1.372-.322h-2.436v2.562h2.338zm7.748-6.636c.961 0 1.698.243 2.212.728.513.476.77 1.185.77 2.128V14h-.952v-1.148a2.276 2.276 0 01-.994.896c-.43.215-.943.322-1.54.322-.822 0-1.475-.196-1.96-.588-.486-.392-.728-.91-.728-1.554 0-.625.224-1.13.672-1.512.457-.383 1.18-.574 2.17-.574h2.338v-.448c0-.635-.178-1.115-.532-1.442-.355-.336-.873-.504-1.554-.504-.467 0-.915.08-1.344.238-.43.15-.798.36-1.106.63l-.448-.742c.373-.317.821-.56 1.344-.728a5.102 5.102 0 011.652-.266zm-.35 6.706c.56 0 1.04-.126 1.442-.378.401-.261.7-.635.896-1.12v-1.204h-2.31c-1.26 0-1.89.439-1.89 1.316 0 .43.163.77.49 1.022.326.243.784.364 1.372.364zM270.91 4.2h1.176l-.21 6.86h-.77l-.196-6.86zm.588 9.87a.75.75 0 01-.532-.21.735.735 0 01-.21-.518.66.66 0 01.21-.504.72.72 0 01.532-.21c.205 0 .378.07.518.21.14.13.21.299.21.504 0 .196-.07.369-.21.518a.704.704 0 01-.518.21z" fill="#B3B3B3"/><path d="M1 7.5l5.6 6L16 2" stroke="#6AAD4A" stroke-width="2.5"/></svg>